<svg width="71" height="71" viewBox="0 0 64 64" fill="none" xmlns="http://www.w3.org/2000/svg">
<path d="M47.3699 36C47.7812 34.4019 48 32.7265 48 31C48 19.9543 39.0457 11 28 11C16.9543 11 8 19.9543 8 31C8 42.0457 16.9543 51 28 51C31.8512 51 35.4482 49.9115 38.5 48.0253" stroke="#CCCCCC" stroke-width="2.5" stroke-miterlimit="10"/>
<path d="M28 43C34.6274 43 40 37.6274 40 31C40 24.3726 34.6274 19 28 19C21.3726 19 16 24.3726 16 31C16 37.6274 21.3726 43 28 43Z" stroke="#CCCCCC" stroke-width="2.5" stroke-miterlimit="10"/>
<path d="M37.85 38.41L34.65 35.21C32.45 33.01 32.45 29.45 34.65 27.25L37.9 24" stroke="#CCCCCC" stroke-width="2" stroke-miterlimit="10"/>
<path d="M21 40.77L24.12 37.65C26.32 35.45 29.88 35.45 32.08 37.65L35.28 40.85" stroke="#CCCCCC" stroke-width="2" stroke-miterlimit="10"/>
<path d="M18.03 24L21.12 27.09C23.32 29.29 23.32 32.85 21.12 35.05L18 38.17" stroke="#CCCCCC" stroke-width="2" stroke-miterlimit="10"/>
<path d="M35.3 21L32.05 24.25C29.85 26.45 26.29 26.45 24.09 24.25L21 21.16" stroke="#CCCCCC" stroke-width="2" stroke-miterlimit="10"/>
<path d="M28 32.5C28.8284 32.5 29.5 31.8284 29.5 31C29.5 30.1716 28.8284 29.5 28 29.5C27.1716 29.5 26.5 30.1716 26.5 31C26.5 31.8284 27.1716 32.5 28 32.5Z" stroke="#CCCCCC" stroke-width="1.3" stroke-miterlimit="10"/>
<circle cx="47" cy="45" r="9" stroke="#CCCCCC" stroke-width="2.5"/>
<path d="M47.0001 39.9997L47.0001 45.6941M47.0001 47.9999L47.0001 50.1997" stroke="#CCCCCC" stroke-width="2.5"/>
</svg>
