<svg width="71" height="71" viewBox="0 0 64 64" fill="none" xmlns="http://www.w3.org/2000/svg">
<ellipse cx="45.2349" cy="53.6784" rx="4.31594" ry="4.25908" stroke="#CCCCCC" stroke-width="2.5"/>
<ellipse cx="17.3338" cy="53.6784" rx="4.31594" ry="4.25908" stroke="#CCCCCC" stroke-width="2.5"/>
<path d="M22.0027 53.2821H40.2788M49.0076 53.2821H55.5543C55.5543 49.2094 55.5112 44.9781 55.5112 40.9053H50.6012L46.5526 33.7614H33.1016C31.5548 33.7614 30.0412 34.2098 28.744 35.0523L19.7323 40.9053H11C8.79086 40.9053 7 42.6962 7 44.9053V53.2821H13.0011" stroke="#CCCCCC" stroke-width="2.5"/>
<path d="M50.2196 40.4815L53.5442 33.8323H57.6999" stroke="#CCCCCC" stroke-width="2"/>
<path d="M50.0857 40.9009L19.7529 40.9009" stroke="#CCCCCC" stroke-width="2.5"/>
<path d="M38.038 33V42.1426" stroke="#CCCCCC" stroke-width="2.5"/>
<circle cx="32" cy="15" r="9" stroke="#CCCCCC" stroke-width="2.5"/>
<path d="M32.0001 9.99967L32.0001 15.6941M32.0001 17.9999L32.0001 20.1997" stroke="#CCCCCC" stroke-width="2.5"/>
</svg>
