<svg width="40" height="40" viewBox="0 0 40 40" fill="none" xmlns="http://www.w3.org/2000/svg">
<path d="M20.0006 31.4006C26.2966 31.4006 31.4006 26.2966 31.4006 20.0006C31.4006 13.7045 26.2966 8.60059 20.0006 8.60059C13.7045 8.60059 8.60059 13.7045 8.60059 20.0006C8.60059 26.2966 13.7045 31.4006 20.0006 31.4006Z" stroke="#CCCCCC" stroke-width="2" stroke-miterlimit="10"/>
<path d="M29.3575 27.0401L26.3175 24.0001C24.2275 21.9101 24.2275 18.5281 26.3175 16.4381L29.405 13.3506" stroke="#CCCCCC" stroke-width="2" stroke-miterlimit="10"/>
<path d="M13.3506 29.2815L16.3146 26.3175C18.4046 24.2275 21.7866 24.2275 23.8766 26.3175L26.9166 29.3575" stroke="#CCCCCC" stroke-width="2" stroke-miterlimit="10"/>
<path d="M10.5285 13.3506L13.464 16.2861C15.554 18.3761 15.554 21.7581 13.464 23.8481L10.5 26.8121" stroke="#CCCCCC" stroke-width="2" stroke-miterlimit="10"/>
<path d="M26.9356 10.5L23.8481 13.5875C21.7581 15.6775 18.3761 15.6775 16.2861 13.5875L13.3506 10.652" stroke="#CCCCCC" stroke-width="2" stroke-miterlimit="10"/>
<path d="M19.9992 21.4242C20.7862 21.4242 21.4242 20.7862 21.4242 19.9992C21.4242 19.2122 20.7862 18.5742 19.9992 18.5742C19.2122 18.5742 18.5742 19.2122 18.5742 19.9992C18.5742 20.7862 19.2122 21.4242 19.9992 21.4242Z" stroke="#CCCCCC" stroke-miterlimit="10"/>
<circle cx="20" cy="20" r="19" stroke="#CCCCCC" stroke-width="2"/>
</svg>
