<svg width="71" height="71" viewBox="0 0 64 64" fill="none" xmlns="http://www.w3.org/2000/svg">
<path d="M43.8823 59.5L47.7192 42.5107H41.0686L38.5107 52.4867H30C28.3431 52.4867 27 53.8298 27 55.4867V59.5H43.8823Z" stroke="#CCCCCC" stroke-width="2.5"/>
<path d="M48.4863 31L48.4863 37.9064L45.0331 37.9064C43.126 37.9064 41.5799 36.3604 41.5799 34.4532V34.4532C41.5799 32.5461 43.126 31 45.0331 31L48.4863 31Z" stroke="#CCCCCC" stroke-width="2.5"/>
<path d="M27.5 59.5H16V51.5M16 51.5V41.5L24.5 39.5V43.5M16 51.5L24.5 47.5V43.5M24.5 43.5L29.5 42.5M29.5 39V46.5" stroke="#CCCCCC" stroke-width="2.5"/>
<circle cx="32" cy="14" r="9" stroke="#CCCCCC" stroke-width="2.5"/>
<path d="M32.0001 8.99967L32.0001 14.6941M32.0001 16.9999L32.0001 19.1997" stroke="#CCCCCC" stroke-width="2.5"/>
</svg>
