<svg width="40" height="40" viewBox="0 0 40 40" fill="none" xmlns="http://www.w3.org/2000/svg">
<ellipse cx="27.5058" cy="31.8142" rx="2.42771" ry="2.39573" stroke="#CCCCCC" stroke-width="1.40625"/>
<ellipse cx="11.8115" cy="31.8142" rx="2.42771" ry="2.39573" stroke="#CCCCCC" stroke-width="1.40625"/>
<path d="M14.4381 31.5864H24.7183M29.6283 31.5864H33.3108C33.3108 29.2955 33.2866 26.9154 33.2866 24.6245H30.5247L28.2474 20.606H20.6812C19.8111 20.606 18.9597 20.8582 18.23 21.3321L13.161 24.6245H8.24902C7.00638 24.6245 5.99902 25.6318 5.99902 26.8745V31.5864H9.37464" stroke="#CCCCCC" stroke-width="1.40625"/>
<path d="M30.3101 24.4008L32.1801 20.6606H34.5178" stroke="#CCCCCC" stroke-width="1.125"/>
<path d="M30.2351 24.6294L13.1729 24.6294" stroke="#CCCCCC" stroke-width="1.40625"/>
<path d="M23.457 20.1841V25.3268" stroke="#CCCCCC" stroke-width="1.40625"/>
<circle cx="20.0625" cy="10.0625" r="5.0625" stroke="#CCCCCC" stroke-width="1.40625"/>
<path d="M20.063 7.24988L20.063 10.453M20.063 11.75L20.063 12.9874" stroke="#CCCCCC" stroke-width="1.40625"/>
</svg>
