<svg width="71" height="43" viewBox="0 0 71 43" fill="none" xmlns="http://www.w3.org/2000/svg">
<path d="M11.4009 40.7937L15.6517 38.1844C17.3797 37.1245 19.3669 36.5601 21.3944 36.5601H49.5953C51.6228 36.5601 53.61 37.1188 55.338 38.1844L59.1568 40.7937" stroke="white" stroke-width="2.16" stroke-miterlimit="10"/>
<path d="M56.9633 41.076H3.5M4.44956 20.386V17.696L12.1103 5.54241C13.343 3.3536 15.6585 2 18.1698 2H52.626C55.1373 2 57.4529 3.3536 58.6855 5.54241L66.3463 17.696V20.386M67.5 41.076H56.9575" stroke="white" stroke-width="2.16" stroke-miterlimit="10"/>
<path d="M0.94043 12.9726L4.44826 12.8977V17.5403" stroke="white" stroke-width="2.16" stroke-miterlimit="10"/>
<path d="M66.3516 17.3678V12.8001L70.0207 12.8" stroke="white" stroke-width="2.16" stroke-miterlimit="10"/>
<path d="M3.37076 17.843L67.2005 17.8431" stroke="white" stroke-width="2.16" stroke-miterlimit="10"/>
<path d="M1 18.8125H69V23H1V18.8125Z" fill="#151515"/>
<path fill-rule="evenodd" clip-rule="evenodd" d="M17.5894 32.6191L15.625 27.1841H17.8589L19.7969 32.6191H17.5894Z" fill="white"/>
<path fill-rule="evenodd" clip-rule="evenodd" d="M52.7695 32.6191L54.7339 27.1841H52.5L50.562 32.6191H52.7695Z" fill="white"/>
<path d="M22.9209 27.9202H47.4008" stroke="white" stroke-width="2.16" stroke-miterlimit="10"/>
<path d="M24.3608 32.24H45.9608" stroke="white" stroke-width="2.16" stroke-miterlimit="10"/>
</svg>
