<svg width="111" height="70" viewBox="0 0 111 70" fill="none" xmlns="http://www.w3.org/2000/svg">
<path d="M22.001 55.88L27.905 52.256C30.305 50.784 33.065 50 35.881 50H75.049C77.865 50 80.625 50.776 83.025 52.256L88.329 55.88" stroke="#231F20" stroke-width="3" stroke-miterlimit="10"/>
<path d="M85.2821 56.272H7.65805L4.94605 37.976C4.74605 35.904 5.35405 33.84 6.65005 32.208L12.3461 27.536V23.8L22.9861 6.92C24.6981 3.88 27.9141 2 31.4021 2H79.258C82.746 2 85.962 3.88 87.674 6.92L98.314 23.8V27.536L104.01 32.208C105.298 33.84 105.906 35.904 105.714 37.976L103.002 56.272H85.274" stroke="#231F20" stroke-width="3" stroke-miterlimit="10"/>
<path d="M9.11298 23.584H5.88898C1.84898 21.72 2.00098 19 2.00098 19C3.61698 17.896 5.51298 17.28 7.47298 17.24L12.345 17.136V23.584" stroke="#231F20" stroke-width="3" stroke-miterlimit="10"/>
<path d="M98.3218 23.3441V17.0001L103.418 17C105.37 17.04 107.274 17.656 108.89 18.76C108.89 18.76 109.042 21.48 105.002 23.3441H101.538" stroke="#231F20" stroke-width="3" stroke-miterlimit="10"/>
<path d="M22.3939 60.224V64.312C22.3939 66.088 20.9539 67.536 19.1699 67.536H10.9379C9.16187 67.536 7.71387 66.096 7.71387 64.312V57" stroke="#231F20" stroke-width="3" stroke-miterlimit="10"/>
<path d="M102.946 57V64.312C102.946 66.088 101.506 67.536 99.7223 67.536H91.4823C89.7063 67.536 88.2583 66.096 88.2583 64.312V60.224" stroke="#231F20" stroke-width="3" stroke-miterlimit="10"/>
<path d="M10.8482 24.0045L99.501 24.0045" stroke="#231F20" stroke-width="3" stroke-miterlimit="10"/>
<path d="M29.5666 37.5043L32.0015 44L17.7349 40.7557C16.3053 40.4285 14.9501 39.7953 13.8853 38.8206C12.9024 37.9241 12.0089 36.6506 12.0015 35L29.5666 37.5043Z" stroke="#231F20" stroke-width="3" stroke-miterlimit="10"/>
<path d="M80.4363 37.5043L78.0015 44L92.268 40.7557C93.6977 40.4285 95.0528 39.7953 96.1176 38.8206C97.1005 37.9241 97.994 36.6506 98.0015 35L80.4363 37.5043Z" stroke="#231F20" stroke-width="3" stroke-miterlimit="10"/>
<path d="M38.001 38H72.001" stroke="#231F20" stroke-width="3" stroke-miterlimit="10"/>
<path d="M40.001 44H70.001" stroke="#231F20" stroke-width="3" stroke-miterlimit="10"/>
</svg>
