<svg width="103" height="112" viewBox="0 0 103 112" fill="none" xmlns="http://www.w3.org/2000/svg">
<path d="M18.3687 99.2739L24.2727 95.6499C26.6727 94.1779 29.4327 93.3939 32.2487 93.3939H71.4167C74.2327 93.3939 76.9927 94.1699 79.3927 95.6499L84.6967 99.2739" stroke="#151515" stroke-width="3" stroke-miterlimit="10"/>
<path d="M94 46V7C94 4.23858 91.7614 2 89 2H14C11.2386 2 9 4.23858 9 7V46" stroke="#151515" stroke-width="3"/>
<path d="M80.2806 99.2721H5.65659L2.94459 70.9761C2.74459 68.9041 3.35259 66.8401 4.64859 65.2081L8.34459 60.5361V56.8001L16.9675 25.3554C18.1588 21.0114 22.1072 18 26.6115 18L77.0457 18.0001C81.55 18.0001 85.4984 21.0115 86.6896 25.3554L95.3126 56.8001V60.5361L99.0086 65.2081C100.297 66.8401 100.905 68.9041 100.713 70.9761L98.0006 99.2721H80.2726" stroke="#151515" stroke-width="3" stroke-miterlimit="10"/>
<path d="M93.5 47.0001H101.5V37.5001" stroke="#151515" stroke-width="3" stroke-miterlimit="10"/>
<path d="M10 47.0001H2V37.5001" stroke="#151515" stroke-width="3" stroke-miterlimit="10"/>
<path d="M20.3929 102.499V106.587C20.3929 108.363 18.9529 109.811 17.1689 109.811H8.93689C7.16089 109.811 5.71289 108.371 5.71289 106.587V99.2751" stroke="#151515" stroke-width="3" stroke-miterlimit="10"/>
<path d="M97.9448 99.2751V106.587C97.9448 108.363 96.5048 109.811 94.7208 109.811H86.4808C84.7048 109.811 83.2568 108.371 83.2568 106.587V102.499" stroke="#151515" stroke-width="3" stroke-miterlimit="10"/>
<path d="M8.44092 56.8002H95.4249" stroke="#151515" stroke-width="3" stroke-miterlimit="10"/>
<path d="M27.2167 72.2224L29.8327 79.5264L14.5047 75.8784C12.9687 75.5104 11.5127 74.7984 10.3687 73.7024C9.31273 72.6944 8.35273 71.2624 8.34473 69.4064L27.2167 72.2224Z" stroke="#151515" stroke-width="3" stroke-miterlimit="10"/>
<path d="M76.449 72.2224L73.833 79.5264L89.161 75.8784C90.697 75.5104 92.153 74.7984 93.297 73.7024C94.353 72.6944 95.313 71.2624 95.321 69.4064L76.449 72.2224Z" stroke="#151515" stroke-width="3" stroke-miterlimit="10"/>
<path d="M32.0488 73.0314L71.6168 73.1114" stroke="#151515" stroke-width="3" stroke-miterlimit="10"/>
<path d="M34.4648 78.7814L69.1928 78.8534" stroke="#151515" stroke-width="3" stroke-miterlimit="10"/>
</svg>
