<svg width="118" height="87" viewBox="0 0 118 87" fill="none" xmlns="http://www.w3.org/2000/svg">
<path d="M26.0239 72.88L31.9279 69.256C34.3279 67.784 37.0879 67 39.9039 67H79.0719C81.8879 67 84.6479 67.776 87.0479 69.256L92.3519 72.88" stroke="#231F20" stroke-width="3" stroke-miterlimit="10"/>
<path d="M90.0679 73.272H9.44394L6.73194 49.976C6.53194 47.904 7.13994 39.84 8.43594 38.208L12.1319 33.536V29.8L22.7719 6.92C24.4839 3.88 27.6999 2 31.1879 2H86.0439C89.5319 2 92.7479 3.88 94.4599 6.92L105.1 29.8V33.536L108.796 38.208C110.084 39.84 110.692 47.904 110.5 49.976L107.788 73.272H90.0599" stroke="#231F20" stroke-width="3" stroke-miterlimit="10"/>
<path d="M9.11274 30.798H5.88874C1.84874 28.934 2.00074 26.214 2.00074 26.214C3.61674 25.11 5.51274 24.494 7.47274 24.454L12.3447 24.454V30.798" stroke="#231F20" stroke-width="3" stroke-miterlimit="10"/>
<path d="M105 30.798V24.454L110.096 24.454C112.048 24.494 113.952 25.11 115.568 26.214C115.568 26.214 115.72 28.934 111.68 30.798H108.216" stroke="#231F20" stroke-width="3" stroke-miterlimit="10"/>
<path d="M24.3926 77.4989V81.5869C24.3926 83.3629 22.9526 84.8109 21.1686 84.8109H12.9366C11.1606 84.8109 9.71265 83.3709 9.71265 81.5869V74.2749" stroke="#231F20" stroke-width="3" stroke-miterlimit="10"/>
<path d="M107.724 74.2749V81.5869C107.724 83.3629 106.284 84.8109 104.5 84.8109H96.26C94.484 84.8109 93.036 83.3709 93.036 81.5869V77.4989" stroke="#231F20" stroke-width="3" stroke-miterlimit="10"/>
<path d="M12.4408 30.8H104.5" stroke="#231F20" stroke-width="3" stroke-miterlimit="10"/>
<path d="M22 8H95" stroke="#231F20" stroke-width="3" stroke-miterlimit="10"/>
<path d="M33.872 46.2223L36.488 53.5263L21.16 49.8782C19.624 49.5102 18.168 48.7983 17.024 47.7023C15.968 46.6943 15.008 45.2622 15 43.4062L33.872 46.2223Z" stroke="#231F20" stroke-width="3" stroke-miterlimit="10"/>
<path d="M83.1043 46.2223L80.4883 53.5263L95.8163 49.8782C97.3523 49.5102 98.8083 48.7983 99.9523 47.7023C101.008 46.6943 101.968 45.2622 101.976 43.4062L83.1043 46.2223Z" stroke="#231F20" stroke-width="3" stroke-miterlimit="10"/>
<path d="M38.7041 47.0312L78.2721 47.1112" stroke="#231F20" stroke-width="3" stroke-miterlimit="10"/>
<path d="M41.1201 52.7812L75.8481 52.8533" stroke="#231F20" stroke-width="3" stroke-miterlimit="10"/>
</svg>
