<svg width="81" height="51" viewBox="0 0 81 51" fill="none" xmlns="http://www.w3.org/2000/svg">
<path d="M16.4009 40.7937L20.6517 38.1844C22.3797 37.1245 24.3669 36.5601 26.3944 36.5601H54.5953C56.6228 36.5601 58.61 37.1188 60.338 38.1844L64.1568 40.7937" stroke="white" stroke-width="2.16" stroke-miterlimit="10"/>
<path d="M61.9633 41.076H6.07426L4.12163 27.9028C3.97763 26.411 4.41538 24.9249 5.3485 23.7498L9.4496 20.386V17.696L17.1104 5.54241C18.343 3.3536 20.6585 2 23.1699 2H57.626C60.1374 2 62.4529 3.3536 63.6855 5.54241L71.3463 17.696V20.386L75.4474 23.7498C76.3748 24.9249 76.8125 26.411 76.6743 27.9028L74.7217 41.076H61.9575" stroke="white" stroke-width="2.16" stroke-miterlimit="10"/>
<path d="M7.12132 17.5405H4.80005C1.89126 16.1984 2.0007 14.24 2.0007 14.24C3.16422 13.4452 4.52933 13.0016 5.94053 12.9728L9.44835 12.898V17.5405" stroke="white" stroke-width="2.16" stroke-miterlimit="10"/>
<path d="M71.3516 17.3678V12.8001L75.0207 12.8C76.4261 12.8288 77.797 13.2724 78.9605 14.0673C78.9605 14.0673 79.0699 16.0257 76.1611 17.3678H73.6671" stroke="white" stroke-width="2.16" stroke-miterlimit="10"/>
<path d="M16.6833 43.9214V46.8648C16.6833 48.1435 15.6465 49.186 14.3621 49.186H8.43504C7.15633 49.186 6.11377 48.1492 6.11377 46.8648V41.6001" stroke="white" stroke-width="2.16" stroke-miterlimit="10"/>
<path d="M74.6808 41.6001V46.8648C74.6808 48.1435 73.644 49.186 72.3595 49.186H66.4267C65.148 49.186 64.1055 48.1492 64.1055 46.8648V43.9214" stroke="white" stroke-width="2.16" stroke-miterlimit="10"/>
<path d="M8.37076 17.843L72.2005 17.8431" stroke="white" stroke-width="2.16" stroke-miterlimit="10"/>
<path d="M21.8475 27.5634L23.6006 32.2403L13.3287 29.9044C12.2994 29.6688 11.3237 29.2128 10.557 28.5111C9.84938 27.8656 9.20604 26.9487 9.20068 25.7603L21.8475 27.5634Z" stroke="white" stroke-width="2.16" stroke-miterlimit="10"/>
<path d="M58.4738 27.5634L56.7207 32.2403L66.9926 29.9044C68.0219 29.6688 68.9976 29.2128 69.7643 28.5111C70.4719 27.8656 71.1153 26.9487 71.1206 25.7603L58.4738 27.5634Z" stroke="white" stroke-width="2.16" stroke-miterlimit="10"/>
<path d="M27.9204 27.9202H52.4003" stroke="white" stroke-width="2.16" stroke-miterlimit="10"/>
<path d="M29.3608 32.2402H50.9608" stroke="white" stroke-width="2.16" stroke-miterlimit="10"/>
</svg>
