<svg width="75" height="55" viewBox="0 0 75 55" fill="none" xmlns="http://www.w3.org/2000/svg">
<path d="M14.297 53.0331L18.5479 50.4239C20.2759 49.364 22.2631 48.7996 24.2906 48.7996H52.4915C54.5191 48.7996 56.5063 49.3583 58.2343 50.4239L62.0531 53.0331" stroke="white" stroke-width="2.15999" stroke-miterlimit="10"/>
<path d="M60.4091 53.3153H2.35977M4.29513 24.7057V22.0158L11.9559 5.54236C13.1886 3.35359 15.5041 2 18.0155 2H57.5118C60.0231 2 62.3387 3.35359 63.5713 5.54236L71.2321 22.0158V24.7057M73.1675 53.3153H60.4033" stroke="white" stroke-width="2.15999" stroke-miterlimit="10"/>
<path d="M0.94043 18.1668L4.44827 18.1667V22.7344" stroke="white" stroke-width="2.15999" stroke-miterlimit="10"/>
<path d="M71.1596 22.7344V18.1667L74.8287 18.1668" stroke="white" stroke-width="2.15999" stroke-miterlimit="10"/>
<path d="M4.51825 22.7356H70.8009" stroke="white" stroke-width="2.15999" stroke-miterlimit="10"/>
<path d="M2.3127 23.7812H74.3127L74.5 28H2.5L2.3127 23.7812Z" fill="#151515"/>
<path d="M11.4001 6.32007H63.9601" stroke="white" stroke-width="2.15999" stroke-miterlimit="10"/>
<path d="M23.4262 34.4221L51.9152 34.4797" stroke="white" stroke-width="2.15999" stroke-miterlimit="10"/>
<path d="M25.1673 38.562L50.1715 38.6139" stroke="white" stroke-width="2.15999" stroke-miterlimit="10"/>
<path fill-rule="evenodd" clip-rule="evenodd" d="M20.5034 38.5L18.539 33.065H20.7729L22.7109 38.5H20.5034Z" fill="white"/>
<path fill-rule="evenodd" clip-rule="evenodd" d="M55.2076 38.5L57.172 33.065H54.9382L53.0001 38.5H55.2076Z" fill="white"/>
</svg>
