<svg width="97" height="58" viewBox="0 0 97 58" fill="none" xmlns="http://www.w3.org/2000/svg">
<path d="M15.001 55.88L20.905 52.256C23.305 50.784 26.065 50 28.881 50H68.049C70.865 50 73.625 50.776 76.025 52.256L81.329 55.88" stroke="#231F20" stroke-width="3" stroke-miterlimit="10"/>
<path d="M78.2822 56.272H0.658203M5.3462 27.536V23.8L15.9862 6.92C17.6982 3.88 20.9142 2 24.4022 2H72.2582C75.7462 2 78.9622 3.88 80.6742 6.92L91.3142 23.8V27.536M96.0022 56.272H78.2742" stroke="#231F20" stroke-width="3" stroke-miterlimit="10"/>
<path d="M0.473145 17.2401L5.34514 17.1361V23.5841" stroke="#231F20" stroke-width="3" stroke-miterlimit="10"/>
<path d="M91.3218 23.3441V17.0001L96.4178 17" stroke="#231F20" stroke-width="3" stroke-miterlimit="10"/>
<path d="M3.84866 24.0045L92.5015 24.0045" stroke="#231F20" stroke-width="3" stroke-miterlimit="10"/>
<path fill-rule="evenodd" clip-rule="evenodd" d="M69.5 44.5265L72.032 36.9779L75 37.0001L72.4063 44.5265H69.5Z" fill="#231F20"/>
<path fill-rule="evenodd" clip-rule="evenodd" d="M26.532 44.5264L24 36.9778L21.032 37L23.6257 44.5264H26.532Z" fill="#231F20"/>
<path d="M31.001 38H65.001" stroke="#231F20" stroke-width="3" stroke-miterlimit="10"/>
<path d="M33.001 44H63.001" stroke="#231F20" stroke-width="3" stroke-miterlimit="10"/>
</svg>
