<svg width="104" height="75" viewBox="0 0 104 75" fill="none" xmlns="http://www.w3.org/2000/svg">
<path d="M19.0239 72.88L24.9279 69.256C27.3279 67.784 30.0879 67 32.9039 67H72.0719C74.8879 67 77.6479 67.776 80.0479 69.256L85.3519 72.88" stroke="#231F20" stroke-width="3" stroke-miterlimit="10"/>
<path d="M83.068 73.272H2.44395M5.13196 32.3075V29.8L15.772 6.92C17.484 3.88 20.7 2 24.188 2H79.044C82.532 2 85.748 3.88 87.46 6.92L98.1 29.8V32.3075M100.788 73.272H83.06" stroke="#231F20" stroke-width="3" stroke-miterlimit="10"/>
<path d="M0.472717 24.454L5.34472 24.454V30.798" stroke="#231F20" stroke-width="3" stroke-miterlimit="10"/>
<path d="M97.9999 30.798V24.454L103.096 24.454" stroke="#231F20" stroke-width="3" stroke-miterlimit="10"/>
<path d="M5.44077 30.8H97.5" stroke="#231F20" stroke-width="3" stroke-miterlimit="10"/>
<path d="M15 8H88" stroke="#231F20" stroke-width="3" stroke-miterlimit="10"/>
<path fill-rule="evenodd" clip-rule="evenodd" d="M71.4999 54.032L74.6921 45.7164H77.9999L74.9004 54.032H71.4999Z" fill="#231F20"/>
<path fill-rule="evenodd" clip-rule="evenodd" d="M31.4999 54.032L28.3078 45.7164H24.9999L28.0994 54.032H31.4999Z" fill="#231F20"/>
<path d="M31.7041 47.0312L71.2721 47.1112" stroke="#231F20" stroke-width="3" stroke-miterlimit="10"/>
<path d="M34.1201 52.7812L68.8481 52.8533" stroke="#231F20" stroke-width="3" stroke-miterlimit="10"/>
</svg>
