<svg width="107" height="70" viewBox="0 0 107 70" fill="none" xmlns="http://www.w3.org/2000/svg">
<mask id="mask0_896_42429" style="mask-type:alpha" maskUnits="userSpaceOnUse" x="-2" y="0" width="111" height="70">
<path d="M20.001 55.88L25.905 52.256C28.305 50.784 31.065 50 33.881 50H73.049C75.865 50 78.625 50.776 81.025 52.256L86.329 55.88" stroke="#231F20" stroke-width="3" stroke-miterlimit="10"/>
<path d="M83.2825 56.272H5.65854L2.94654 37.976C2.74654 35.904 3.35454 33.84 4.65054 32.208L10.3465 27.536V23.8L20.9865 6.92C22.6985 3.88 25.9145 2 29.4025 2H77.2585C80.7465 2 83.9625 3.88 85.6745 6.92L96.3145 23.8V27.536L102.011 32.208C103.299 33.84 103.907 35.904 103.715 37.976L101.003 56.272H83.2745" stroke="#231F20" stroke-width="3" stroke-miterlimit="10"/>
<path d="M7.11298 23.584H3.88898C-0.151024 21.72 0.000976562 19 0.000976562 19C1.61698 17.896 3.51298 17.28 5.47298 17.24L10.345 17.136V23.584" stroke="#231F20" stroke-width="3" stroke-miterlimit="10"/>
<path d="M96.3218 23.3441V17.0001L101.418 17C103.37 17.04 105.274 17.656 106.89 18.76C106.89 18.76 107.042 21.48 103.002 23.3441H99.5378" stroke="#231F20" stroke-width="3" stroke-miterlimit="10"/>
<path d="M20.3939 60.224V64.312C20.3939 66.088 18.9539 67.536 17.1699 67.536H8.93787C7.16187 67.536 5.71387 66.096 5.71387 64.312V57" stroke="#231F20" stroke-width="3" stroke-miterlimit="10"/>
<path d="M100.946 57V64.312C100.946 66.088 99.5063 67.536 97.7223 67.536H89.4823C87.7063 67.536 86.2583 66.096 86.2583 64.312V60.224" stroke="#231F20" stroke-width="3" stroke-miterlimit="10"/>
<path d="M8.84817 24.0045L97.501 24.0045" stroke="#231F20" stroke-width="3" stroke-miterlimit="10"/>
<path d="M27.5661 37.5043L30.001 44L15.7344 40.7557C14.3048 40.4285 12.9496 39.7953 11.8848 38.8206C10.9019 37.9241 10.0084 36.6506 10.001 35L27.5661 37.5043Z" stroke="#231F20" stroke-width="3" stroke-miterlimit="10"/>
<path d="M78.4358 37.5043L76.001 44L90.2675 40.7557C91.6972 40.4285 93.0524 39.7953 94.1171 38.8206C95.1 37.9241 95.9935 36.6506 96.001 35L78.4358 37.5043Z" stroke="#231F20" stroke-width="3" stroke-miterlimit="10"/>
<path d="M36.001 38H70.001" stroke="#231F20" stroke-width="3" stroke-miterlimit="10"/>
<path d="M38.001 44H68.001" stroke="#231F20" stroke-width="3" stroke-miterlimit="10"/>
</mask>
<g mask="url(#mask0_896_42429)">
<rect x="34" y="-19" width="39" height="95" fill="black"/>
</g>
</svg>
