<svg width="100" height="112" viewBox="0 0 100 112" fill="none" xmlns="http://www.w3.org/2000/svg">
<mask id="mask0_896_42525" style="mask-type:alpha" maskUnits="userSpaceOnUse" x="-2" y="0" width="103" height="112">
<path d="M16.3687 99.2739L22.2727 95.6499C24.6727 94.1779 27.4327 93.3939 30.2487 93.3939H69.4167C72.2327 93.3939 74.9927 94.1699 77.3927 95.6499L82.6967 99.2739" stroke="#151515" stroke-width="3" stroke-miterlimit="10"/>
<path d="M92 46V7C92 4.23858 89.7614 2 87 2H12C9.23858 2 7 4.23858 7 7V46" stroke="#151515" stroke-width="3"/>
<path d="M78.2808 99.2721H3.65683L0.94483 70.9761C0.74483 68.9041 1.35283 66.8401 2.64883 65.2081L6.34483 60.5361V56.8001L14.9678 25.3554C16.159 21.0114 20.1074 18 24.6118 18L75.0459 18.0001C79.5502 18.0001 83.4986 21.0115 84.6899 25.3554L93.3128 56.8001V60.5361L97.0088 65.2081C98.2968 66.8401 98.9048 68.9041 98.7128 70.9761L96.0008 99.2721H78.2728" stroke="#151515" stroke-width="3" stroke-miterlimit="10"/>
<path d="M91.5 47.0001H99.5V37.5001" stroke="#151515" stroke-width="3" stroke-miterlimit="10"/>
<path d="M8 47.0001H0V37.5001" stroke="#151515" stroke-width="3" stroke-miterlimit="10"/>
<path d="M18.3926 102.499V106.587C18.3926 108.363 16.9526 109.811 15.1686 109.811H6.93665C5.16065 109.811 3.71265 108.371 3.71265 106.587V99.2751" stroke="#151515" stroke-width="3" stroke-miterlimit="10"/>
<path d="M95.9448 99.2751V106.587C95.9448 108.363 94.5048 109.811 92.7208 109.811H84.4808C82.7048 109.811 81.2568 108.371 81.2568 106.587V102.499" stroke="#151515" stroke-width="3" stroke-miterlimit="10"/>
<path d="M6.44092 56.8002H93.4249" stroke="#151515" stroke-width="3" stroke-miterlimit="10"/>
<path d="M25.2167 72.2224L27.8327 79.5264L12.5047 75.8784C10.9687 75.5104 9.51273 74.7984 8.36873 73.7024C7.31273 72.6944 6.35273 71.2624 6.34473 69.4064L25.2167 72.2224Z" stroke="#151515" stroke-width="3" stroke-miterlimit="10"/>
<path d="M74.4488 72.2224L71.8328 79.5264L87.1608 75.8784C88.6968 75.5104 90.1528 74.7984 91.2968 73.7024C92.3528 72.6944 93.3128 71.2624 93.3208 69.4064L74.4488 72.2224Z" stroke="#151515" stroke-width="3" stroke-miterlimit="10"/>
<path d="M30.0488 73.0314L69.6168 73.1114" stroke="#151515" stroke-width="3" stroke-miterlimit="10"/>
<path d="M32.4648 78.7814L67.1928 78.8534" stroke="#151515" stroke-width="3" stroke-miterlimit="10"/>
</mask>
<g mask="url(#mask0_896_42525)">
<path d="M31 -9H69.5V117H31V-9Z" fill="black"/>
</g>
</svg>
