<svg width="100" height="101" viewBox="0 0 100 101" fill="none" xmlns="http://www.w3.org/2000/svg">
<path d="M16.3687 99.2739L22.2727 95.6499C24.6727 94.1779 27.4327 93.3939 30.2487 93.3939H69.4167C72.2327 93.3939 74.9927 94.1699 77.3927 95.6499L82.6967 99.2739" stroke="#151515" stroke-width="3" stroke-miterlimit="10"/>
<path d="M92 46V7C92 4.23858 89.7614 2 87 2H12C9.23858 2 7 4.23858 7 7V46" stroke="#151515" stroke-width="3"/>
<path d="M78.2807 99.2721H3.65674M6.34474 58.5361V56.8001L14.9677 25.3554C16.1589 21.0114 20.1073 18 24.6117 18L75.0458 18.0001C79.5501 18.0001 83.4985 21.0115 84.6898 25.3554L93.3127 56.8001V58.5361M96.0007 99.2721H78.2727" stroke="#151515" stroke-width="3" stroke-miterlimit="10"/>
<path d="M91.5 47.0001H99.5" stroke="#151515" stroke-width="3" stroke-miterlimit="10"/>
<path d="M8 47.0001H0" stroke="#151515" stroke-width="3" stroke-miterlimit="10"/>
<path d="M6.44092 56.8002H93.4249" stroke="#151515" stroke-width="3" stroke-miterlimit="10"/>
<path fill-rule="evenodd" clip-rule="evenodd" d="M70 80.3156L73.2324 72H76.5002L73.4407 80.3156H70Z" fill="#151515"/>
<path fill-rule="evenodd" clip-rule="evenodd" d="M29.9404 80.3156L26.7081 72H23.4403L26.4997 80.3156H29.9404Z" fill="#151515"/>
<path d="M30.0488 73.0314L69.6168 73.1114" stroke="#151515" stroke-width="3" stroke-miterlimit="10"/>
<path d="M32.4648 78.7814L67.1928 78.8534" stroke="#151515" stroke-width="3" stroke-miterlimit="10"/>
</svg>
