<svg width="85" height="63" viewBox="0 0 85 63" fill="none" xmlns="http://www.w3.org/2000/svg">
<path d="M19.2974 53.0331L23.5482 50.4239C25.2762 49.364 27.2634 48.7996 29.291 48.7996H57.4919C59.5194 48.7996 61.5066 49.3583 63.2346 50.4239L67.0535 53.0331" stroke="white" stroke-width="2.15999" stroke-miterlimit="10"/>
<path d="M65.4095 53.3153H7.36015L5.40751 36.5424C5.26351 35.0505 5.70127 29.2445 6.63439 28.0695L9.29552 24.7057V22.0158L16.9563 5.54236C18.189 3.35359 20.5045 2 23.0158 2H62.5122C65.0235 2 67.3391 3.35359 68.5717 5.54236L76.2325 22.0158V24.7057L78.8936 28.0695C79.821 29.2445 80.2587 35.0505 80.1205 36.5424L78.1679 53.3153H65.4037" stroke="white" stroke-width="2.15999" stroke-miterlimit="10"/>
<path d="M7.12167 22.7344H4.80038C1.89158 21.3923 2.00102 19.4339 2.00102 19.4339C3.16454 18.6391 4.52966 18.1956 5.94086 18.1668L9.44871 18.1667V22.7344" stroke="white" stroke-width="2.15999" stroke-miterlimit="10"/>
<path d="M76.16 22.7344V18.1667L79.8292 18.1668C81.2346 18.1956 82.6055 18.6391 83.769 19.4339C83.769 19.4339 83.8784 21.3923 80.9696 22.7344H78.4756" stroke="white" stroke-width="2.15999" stroke-miterlimit="10"/>
<path d="M18.1229 56.3591V59.3024C18.1229 60.5811 17.0861 61.6237 15.8017 61.6237H9.87462C8.5959 61.6237 7.55334 60.5869 7.55334 59.3024V54.0378" stroke="white" stroke-width="2.15999" stroke-miterlimit="10"/>
<path d="M78.1214 54.0378V59.3024C78.1214 60.5811 77.0846 61.6237 75.8001 61.6237H69.8673C68.5886 61.6237 67.546 60.5869 67.546 59.3024V56.3591" stroke="white" stroke-width="2.15999" stroke-miterlimit="10"/>
<path d="M9.51868 22.7356H75.8013" stroke="white" stroke-width="2.15999" stroke-miterlimit="10"/>
<path d="M16.4005 6.32007H68.9605" stroke="white" stroke-width="2.15999" stroke-miterlimit="10"/>
<path d="M24.9487 33.8398L26.8322 39.0986L15.796 36.472C14.6901 36.2071 13.6418 35.6945 12.8181 34.9053C12.0578 34.1796 11.3666 33.1486 11.3608 31.8123L24.9487 33.8398Z" stroke="white" stroke-width="2.15999" stroke-miterlimit="10"/>
<path d="M60.3951 33.8398L58.5116 39.0986L69.5478 36.472C70.6537 36.2071 71.702 35.6945 72.5257 34.9053C73.286 34.1796 73.9772 33.1486 73.983 31.8123L60.3951 33.8398Z" stroke="white" stroke-width="2.15999" stroke-miterlimit="10"/>
<path d="M28.4266 34.4221L56.9156 34.4797" stroke="white" stroke-width="2.15999" stroke-miterlimit="10"/>
<path d="M30.1677 38.562L55.1719 38.6139" stroke="white" stroke-width="2.15999" stroke-miterlimit="10"/>
</svg>
