<svg width="75" height="81" viewBox="0 0 75 81" fill="none" xmlns="http://www.w3.org/2000/svg">
<path d="M13.7856 72.0373L18.0365 69.428C19.7645 68.3682 21.7517 67.8037 23.7792 67.8037H51.9802C54.0077 67.8037 55.9949 68.3624 57.7229 69.428L61.5418 72.0373" stroke="white" stroke-width="2.16" stroke-miterlimit="10"/>
<path d="M68.2391 33.6801V5.60001C68.2391 3.61178 66.6273 2 64.639 2H10.6391C8.65084 2 7.03906 3.61177 7.03906 5.6V33.6801" stroke="white" stroke-width="2.16"/>
<path d="M58.3621 72.0361H4.63286L2.68022 51.6629C2.53622 50.1711 2.97398 48.685 3.9071 47.5099L6.56822 44.1461V41.4562L12.7768 18.8159C13.6344 15.6882 16.4773 13.52 19.7204 13.52L56.033 13.5201C59.2761 13.5201 62.119 15.6883 62.9766 18.816L69.1852 41.4562V44.1461L71.8463 47.5099C72.7737 48.685 73.2114 50.1711 73.0732 51.6629L71.1205 72.0361H58.3564" stroke="white" stroke-width="2.16" stroke-miterlimit="10"/>
<path d="M67.8799 34.4001H73.6399V27.5601" stroke="white" stroke-width="2.16" stroke-miterlimit="10"/>
<path d="M7.75977 34.4001H1.99977V27.5601" stroke="white" stroke-width="2.16" stroke-miterlimit="10"/>
<path d="M15.2429 74.3596V77.303C15.2429 78.5817 14.2061 79.6243 12.9217 79.6243H6.99462C5.7159 79.6243 4.67334 78.5875 4.67334 77.303V72.0383" stroke="white" stroke-width="2.16" stroke-miterlimit="10"/>
<path d="M71.0802 72.0383V77.303C71.0802 78.5817 70.0434 79.6243 68.759 79.6243H62.8262C61.5474 79.6243 60.5049 78.5875 60.5049 77.303V74.3596" stroke="white" stroke-width="2.16" stroke-miterlimit="10"/>
<path d="M6.6377 41.4561H69.2662" stroke="white" stroke-width="2.16" stroke-miterlimit="10"/>
<path d="M20.1552 52.5602L22.0387 57.8191L11.0026 55.1926C9.89666 54.9276 8.84834 54.415 8.02466 53.6258C7.26434 52.9001 6.57314 51.869 6.56738 50.5327L20.1552 52.5602Z" stroke="white" stroke-width="2.16" stroke-miterlimit="10"/>
<path d="M55.6023 52.5602L53.7188 57.8191L64.7549 55.1926C65.8608 54.9276 66.9092 54.415 67.7328 53.6258C68.4932 52.9001 69.1844 51.869 69.1901 50.5327L55.6023 52.5602Z" stroke="white" stroke-width="2.16" stroke-miterlimit="10"/>
<path d="M23.6348 53.1428L52.1237 53.2004" stroke="white" stroke-width="2.16" stroke-miterlimit="10"/>
<path d="M25.3745 57.2827L50.3787 57.3346" stroke="white" stroke-width="2.16" stroke-miterlimit="10"/>
</svg>
