<svg width="72" height="74" viewBox="0 0 72 74" fill="none" xmlns="http://www.w3.org/2000/svg">
<path d="M11.7856 72.0373L16.0365 69.428C17.7645 68.3682 19.7517 67.8037 21.7792 67.8037H49.9802C52.0077 67.8037 53.9949 68.3624 55.7229 69.428L59.5418 72.0373" stroke="white" stroke-width="2.16" stroke-miterlimit="10"/>
<path d="M66.2391 33.6801V5.60001C66.2391 3.61178 64.6273 2 62.639 2H8.63907C6.65084 2 5.03906 3.61177 5.03906 5.6V33.6801" stroke="white" stroke-width="2.16"/>
<path d="M56.3626 72.0361H2.6333M4.56866 44.1461V41.4562L10.7772 18.8159C11.6349 15.6882 14.4777 13.52 17.7209 13.52L54.0334 13.5201C57.2766 13.5201 60.1194 15.6883 60.9771 18.816L67.1856 41.4562V44.1461M69.121 72.0361H56.3568" stroke="white" stroke-width="2.16" stroke-miterlimit="10"/>
<path d="M65.8799 34.4001H71.6399" stroke="white" stroke-width="2.16" stroke-miterlimit="10"/>
<path d="M5.75977 34.4001H-0.000234127" stroke="white" stroke-width="2.16" stroke-miterlimit="10"/>
<path d="M4.6377 41.4561H67.2662" stroke="white" stroke-width="2.16" stroke-miterlimit="10"/>
<path fill-rule="evenodd" clip-rule="evenodd" d="M18.792 57.4348L16.8276 51.9998H19.0615L20.9995 57.4348H18.792Z" fill="white"/>
<path fill-rule="evenodd" clip-rule="evenodd" d="M53.0005 57.4348L54.9648 51.9998H52.731L50.793 57.4348H53.0005Z" fill="white"/>
<path d="M21.6348 53.1428L50.1237 53.2004" stroke="white" stroke-width="2.16" stroke-miterlimit="10"/>
<path d="M23.3745 57.2827L48.3787 57.3346" stroke="white" stroke-width="2.16" stroke-miterlimit="10"/>
<path d="M1.5 42.5H69.5V46.5H1.5V42.5Z" fill="#151515"/>
</svg>
