<svg width="114" height="87" viewBox="0 0 114 87" fill="none" xmlns="http://www.w3.org/2000/svg">
<mask id="mask0_896_42608" style="mask-type:alpha" maskUnits="userSpaceOnUse" x="-2" y="0" width="118" height="87">
<path d="M24.0239 72.88L29.9279 69.256C32.3279 67.784 35.0879 67 37.9039 67H77.0719C79.8879 67 82.6479 67.776 85.0479 69.256L90.3519 72.88" stroke="#231F20" stroke-width="3" stroke-miterlimit="10"/>
<path d="M88.0679 73.272H7.44394L4.73194 49.976C4.53194 47.904 5.13994 39.84 6.43594 38.208L10.1319 33.536V29.8L20.7719 6.92C22.4839 3.88 25.6999 2 29.1879 2H84.0439C87.5319 2 90.7479 3.88 92.4599 6.92L103.1 29.8V33.536L106.796 38.208C108.084 39.84 108.692 47.904 108.5 49.976L105.788 73.272H88.0599" stroke="#231F20" stroke-width="3" stroke-miterlimit="10"/>
<path d="M7.11275 30.798H3.88874C-0.151256 28.934 0.000744409 26.214 0.000744409 26.214C1.61674 25.11 3.51274 24.494 5.47274 24.454L10.3447 24.35V30.798" stroke="#231F20" stroke-width="3" stroke-miterlimit="10"/>
<path d="M103 30.798L103.224 24.35L108.096 24.454C110.048 24.494 111.952 25.11 113.568 26.214C113.568 26.214 113.72 28.934 109.68 30.798H106.216" stroke="#231F20" stroke-width="3" stroke-miterlimit="10"/>
<path d="M22.3926 77.4989V81.5869C22.3926 83.3629 20.9526 84.8109 19.1686 84.8109H10.9366C9.16065 84.8109 7.71265 83.3709 7.71265 81.5869V74.2749" stroke="#231F20" stroke-width="3" stroke-miterlimit="10"/>
<path d="M105.724 74.2749V81.5869C105.724 83.3629 104.284 84.8109 102.5 84.8109H94.2601C92.4841 84.8109 91.0361 83.3709 91.0361 81.5869V77.4989" stroke="#231F20" stroke-width="3" stroke-miterlimit="10"/>
<path d="M10.4409 30.8H102.5" stroke="#231F20" stroke-width="3" stroke-miterlimit="10"/>
<path d="M20 8H93" stroke="#231F20" stroke-width="3" stroke-miterlimit="10"/>
<path d="M31.872 46.2223L34.488 53.5263L19.16 49.8782C17.624 49.5102 16.168 48.7983 15.024 47.7023C13.968 46.6943 13.008 45.2622 13 43.4062L31.872 46.2223Z" stroke="#231F20" stroke-width="3" stroke-miterlimit="10"/>
<path d="M81.1043 46.2223L78.4883 53.5263L93.8163 49.8782C95.3523 49.5102 96.8083 48.7983 97.9523 47.7023C99.0083 46.6943 99.9683 45.2622 99.9763 43.4062L81.1043 46.2223Z" stroke="#231F20" stroke-width="3" stroke-miterlimit="10"/>
<path d="M36.7041 47.0312L76.2721 47.1112" stroke="#231F20" stroke-width="3" stroke-miterlimit="10"/>
<path d="M39.1201 52.7812L73.8481 52.8533" stroke="#231F20" stroke-width="3" stroke-miterlimit="10"/>
</mask>
<g mask="url(#mask0_896_42608)">
<rect x="38" y="-2" width="38" height="95" fill="black"/>
</g>
</svg>
