<svg width="48" height="48" viewBox="0 0 48 48" fill="none" xmlns="http://www.w3.org/2000/svg">
<path d="M22.2183 17.4376L25.8995 11.5001L36.3495 11.5L40.0308 17.4376C41.556 17.4376 40.7902 17.4376 42.9995 17.4376V30.5C41.0995 30.5 42.0104 30.5 40.7902 30.5H37.4995V27.5H27.4692" stroke="#151515" stroke-width="3"/>
<path d="M36 21H39V24H36V21Z" fill="#151515"/>
<path d="M22 17.5H41.5" stroke="#151515" stroke-width="3"/>
<path d="M5 36.947V34.2194V23.5877H7.96875L11.65 17.6502L13.1799 17.6502H20.5701L22.1 17.6501L25.7813 23.5877H28.75V36.947H26.5407H23.5547V33.9783H10.1953V36.947H5Z" stroke="#151515" stroke-width="3"/>
<path d="M22 27H25V30H22V27Z" fill="#151515"/>
<path d="M8.5 27H11.5V30H8.5V27Z" fill="#151515"/>
<path d="M7.76318 23.5877H25.9899" stroke="#151515" stroke-width="3"/>
</svg>
