<svg width="30" height="30" viewBox="0 0 30 30" fill="none" xmlns="http://www.w3.org/2000/svg">
<path fill-rule="evenodd" clip-rule="evenodd" d="M20.3867 13.3137L22.508 11.1924C23.6796 10.0208 23.6796 8.12132 22.508 6.94975C21.3365 5.77817 19.437 5.77817 18.2654 6.94975L13.3157 11.8995C12.1441 13.0711 12.1441 14.9706 13.3157 16.1421C13.5636 16.3901 13.8441 16.5855 14.1435 16.7285L12.6793 18.1927C12.4044 18.0106 12.1436 17.7985 11.9014 17.5563C9.94882 15.6037 9.94882 12.4379 11.9014 10.4853L16.8512 5.53553C18.8038 3.58291 21.9696 3.58291 23.9223 5.53553C25.8749 7.48816 25.8749 10.654 23.9223 12.6066L21.8009 14.7279L20.3867 13.3137Z" fill="#151515"/>
<path fill-rule="evenodd" clip-rule="evenodd" d="M7.65874 14.7279L5.53742 16.8492C3.5848 18.8019 3.5848 21.9677 5.53742 23.9203C7.49005 25.8729 10.6559 25.8729 12.6085 23.9203L17.5582 18.9706C19.5109 17.0179 19.5109 13.8521 17.5582 11.8995C17.3161 11.6573 17.0553 11.4452 16.7804 11.2631L15.3162 12.7273C15.6156 12.8703 15.8961 13.0658 16.144 13.3137C17.3156 14.4853 17.3156 16.3848 16.144 17.5564L11.1943 22.5061C10.0227 23.6777 8.12321 23.6777 6.95164 22.5061C5.78006 21.3345 5.78006 19.435 6.95164 18.2635L9.07296 16.1421L7.65874 14.7279Z" fill="#151515"/>
</svg>
