<svg width="48" height="48" viewBox="0 0 48 48" fill="none" xmlns="http://www.w3.org/2000/svg">
<path d="M22.2183 17.4376L25.8995 11.5001L36.3495 11.5L40.0308 17.4376C41.2548 17.4376 41.0033 17.4376 41.9983 17.4376C42.5506 17.4376 42.9995 17.8853 42.9995 18.4376V29.5C42.9995 30.0523 42.5508 30.5 41.9985 30.5C41.4298 30.5 41.692 30.5 40.7902 30.5H37.4995V27.5H27.4692" stroke="white" stroke-width="3"/>
<path d="M36 21H39V24H36V21Z" fill="white"/>
<path d="M22 17.5H41.5" stroke="white" stroke-width="3"/>
<path d="M5 35.947V34.2194V24.5877C5 24.0354 5.45023 23.5877 6.00251 23.5877H7.96875L11.65 17.6502C13.1799 17.6502 12.2161 17.6502 13.1799 17.6502H20.5701L22.1 17.6501L25.7813 23.5877H27.7475C28.2998 23.5877 28.75 24.0354 28.75 24.5877V35.947C28.75 36.4993 28.3013 36.947 27.749 36.947H26.5407H23.5547V33.9783H10.1953V36.947H6C5.44772 36.947 5 36.4992 5 35.947Z" stroke="white" stroke-width="3"/>
<path d="M22 27H25V30H22V27Z" fill="white"/>
<path d="M8.5 27H11.5V30H8.5V27Z" fill="white"/>
<path d="M7.76318 23.5877H25.9899" stroke="white" stroke-width="3"/>
</svg>
