<svg width="48" height="48" viewBox="0 0 48 48" fill="none" xmlns="http://www.w3.org/2000/svg">
<path d="M16.5 35.5L12.5 39.848C8.5285 36.5462 6 31.5684 6 26C6 16.0589 14.0589 8 24 8C33.9411 8 42 16.0589 42 26C42 31.5684 39.4715 36.5462 35.5 39.848L31.5 35.5" stroke="#151515" stroke-width="3"/>
<path d="M19 21.5L24.3037 26.8033" stroke="#151515" stroke-width="2.5"/>
<path d="M24 9V14" stroke="#151515" stroke-width="3"/>
<path d="M36.0208 13.9792L32.4852 17.5147" stroke="#151515" stroke-width="3"/>
<path d="M15.5146 17.5149L11.9791 13.9794" stroke="#151515" stroke-width="3"/>
<path d="M40.9995 27L35.9995 27" stroke="#151515" stroke-width="3"/>
<path d="M12 27L7 27" stroke="#151515" stroke-width="3"/>
<path d="M22.2322 24.7322C23.2085 23.7559 24.7915 23.7559 25.7678 24.7322C26.7441 25.7085 26.7441 27.2915 25.7678 28.2678C24.7915 29.2441 23.2085 29.2441 22.2322 28.2678C21.2559 27.2915 21.2559 25.7085 22.2322 24.7322Z" fill="#151515"/>
</svg>
