<svg width="33" height="22" viewBox="0 0 33 22" fill="none" xmlns="http://www.w3.org/2000/svg">
<path fill-rule="evenodd" clip-rule="evenodd" d="M19.3596 1.26965V0.856201H19.7878V1.26965H19.3596ZM20.6444 1.26965V0.856201H21.5013V1.26965H20.6444ZM22.3579 1.26965V0.856201H23.2139V1.26965H22.3579ZM24.0702 1.26965V0.856201H24.9265V1.26965H24.0702ZM25.7827 1.26965V0.856201H26.639V1.26965H25.7827ZM27.4954 1.26965V0.856201H28.3514V1.26965H27.4954ZM29.2079 1.26965V0.856201H30.0648V1.26965H29.2079ZM30.9214 1.26965V0.856201H31.3497V1.26965H30.9214Z" fill="#666666"/>
<path fill-rule="evenodd" clip-rule="evenodd" d="M24.2172 21.1132V20.6997H24.6641V21.1132H24.2172ZM25.5582 21.1132V20.6997H26.4461V21.1132H25.5582ZM27.3384 21.1132V20.6997H28.228V21.1132H27.3384ZM29.1203 21.1132V20.6997H30.0082V21.1132H29.1203ZM30.9023 21.1132V20.6997H31.3492V21.1132H30.9023Z" fill="#666666"/>
<path fill-rule="evenodd" clip-rule="evenodd" d="M7.13664 17.4244C7.13662 17.4244 7.13666 17.4244 7.13664 17.4244L5.61107 18.3608L5.39478 18.0085L6.92042 17.072C7.57291 16.6718 8.32355 16.4585 9.08962 16.4585H19.2109C19.9766 16.4585 20.7275 16.6695 21.3805 17.0722L21.3846 17.0748L22.7592 18.014L22.526 18.3553L21.1594 17.4216C20.5731 17.0611 19.899 16.8719 19.2109 16.8719H9.08962C8.40037 16.8719 7.72449 17.0639 7.13664 17.4244Z" fill="#151515"/>
<path fill-rule="evenodd" clip-rule="evenodd" d="M7.83695 1.26575C7.01029 1.26575 6.24809 1.71129 5.84232 2.43183L3.11946 7.26337V8.24642L2.11979 9.51008L2.11955 9.51038C1.81802 9.89008 1.67655 10.3702 1.7231 10.8525L2.40599 17.9775H25.8927L26.5755 10.8532C26.5755 10.8531 26.5755 10.8529 26.5756 10.8527C26.6201 10.37 26.4784 9.88964 26.1787 9.50989L25.1792 8.24642V7.26337L22.4564 2.43188C22.0506 1.71135 21.2884 1.26575 20.4617 1.26575H7.83695ZM2.03027 18.391L1.31156 10.8922C1.31156 10.8921 1.31157 10.8922 1.31156 10.8922C1.2548 10.3037 1.42747 9.71718 1.79557 9.25352C1.7955 9.2536 1.79563 9.25343 1.79557 9.25352L2.70601 8.10266V7.15489L5.48207 2.22895C5.48206 2.22897 5.48208 2.22893 5.48207 2.22895C5.96109 1.37839 6.86098 0.852295 7.83695 0.852295H20.4617C21.4377 0.852295 22.3376 1.37836 22.8166 2.22895L25.5927 7.15489V8.10266L26.5031 9.25356C26.869 9.71712 27.0417 10.3034 26.9872 10.8914L26.9871 10.892L26.2684 18.391H2.03027Z" fill="#151515"/>
<path fill-rule="evenodd" clip-rule="evenodd" d="M3.11805 5.3316V7.209H2.7046V5.75398L1.65677 5.77634C1.23144 5.78502 0.818205 5.90785 0.456562 6.12939C0.467823 6.18357 0.489906 6.25722 0.533256 6.34197C0.628258 6.5277 0.833863 6.78319 1.28928 7.00228H2.07615V7.41573H1.19765L1.15643 7.39671C0.596201 7.13823 0.308749 6.81097 0.165161 6.53025C0.0942134 6.39154 0.0605278 6.26833 0.0447926 6.17686C0.036933 6.13117 0.0335488 6.09339 0.0322132 6.06549C0.031545 6.05153 0.0313882 6.04002 0.0314432 6.03119C0.0314707 6.02677 0.0315513 6.02302 0.0316476 6.01997L0.0317995 6.01592L0.0318757 6.01429L0.0319124 6.01357C0.031921 6.01342 0.0319475 6.01293 0.238352 6.02446L0.0319475 6.01293L0.0376308 5.91123L0.121738 5.85377C0.571976 5.54618 1.10084 5.37417 1.64804 5.36298C1.64801 5.36298 1.64807 5.36298 1.64804 5.36298L3.11805 5.3316Z" fill="#151515"/>
<path fill-rule="evenodd" clip-rule="evenodd" d="M25.2448 5.33179L26.7076 5.36301C26.7075 5.36301 26.7076 5.36301 26.7076 5.36301C27.2526 5.3742 27.7836 5.54615 28.2339 5.8538L28.318 5.91126L28.3237 6.01296L28.1173 6.02449C28.3237 6.01296 28.3237 6.0128 28.3237 6.01296L28.3238 6.0136L28.3238 6.01432L28.3239 6.01595L28.324 6.02C28.3241 6.02305 28.3242 6.0268 28.3242 6.03121C28.3243 6.04005 28.3241 6.05156 28.3235 6.06552C28.3221 6.09342 28.3187 6.1312 28.3109 6.17689C28.2952 6.26836 28.2615 6.39157 28.1905 6.53028C28.0469 6.81099 27.7595 7.13826 27.1992 7.39674L27.158 7.41576H26.2175V7.00231H27.0664C27.5218 6.78322 27.7274 6.52773 27.8224 6.342C27.8658 6.25726 27.8878 6.18362 27.8991 6.12944C27.5372 5.90793 27.1226 5.78506 26.6991 5.77638L25.6439 5.75385L25.5931 7.21621L25.1799 7.20186L25.2448 5.33179Z" fill="#151515"/>
<path fill-rule="evenodd" clip-rule="evenodd" d="M2.43918 18.1854V20.0748C2.43918 20.4213 2.72046 20.7012 3.06556 20.7012H5.19277C5.53927 20.7012 5.81915 20.4199 5.81915 20.0748V19.0185H6.23261V20.0748C6.23261 20.6476 5.76828 21.1147 5.19277 21.1147H3.06556C2.49279 21.1147 2.02573 20.6503 2.02573 20.0748V18.1854H2.43918Z" fill="#151515"/>
<path fill-rule="evenodd" clip-rule="evenodd" d="M25.8582 20.0748V18.1853H26.2716V20.0748C26.2716 20.6476 25.8073 21.1146 25.2318 21.1146H23.1025C22.5297 21.1146 22.0627 20.6503 22.0627 20.0748V19.0184H22.4761V20.0748C22.4761 20.4213 22.7574 20.7012 23.1025 20.7012H25.2318C25.5783 20.7012 25.8582 20.4199 25.8582 20.0748Z" fill="#151515"/>
<path fill-rule="evenodd" clip-rule="evenodd" d="M25.4131 7.41516H2.93573V7.00171H25.4131V7.41516Z" fill="#151515"/>
<path fill-rule="evenodd" clip-rule="evenodd" d="M2.70331 10.2273L7.94064 11.0088L8.78699 13.3718L4.455 12.3408C4.02905 12.2388 3.61767 12.0396 3.29108 11.7267C2.99501 11.444 2.70674 11.024 2.70435 10.4682L2.70331 10.2273ZM3.14501 10.7112C3.20931 11.0014 3.38005 11.2401 3.57683 11.4279L3.5771 11.4282C3.8417 11.6817 4.18305 11.8505 4.55087 11.9387C4.55082 11.9386 4.55092 11.9387 4.55087 11.9387L8.14049 12.793L7.63485 11.3812L3.14501 10.7112Z" fill="#151515"/>
<path fill-rule="evenodd" clip-rule="evenodd" d="M25.5956 10.2273L25.5945 10.4682C25.5921 11.0241 25.3038 11.4441 25.0077 11.7268C24.6811 12.0397 24.2701 12.2387 23.8442 12.3408L19.5119 13.3718L20.3582 11.0088L25.5956 10.2273ZM20.664 11.3812L20.1584 12.793L23.7479 11.9387C23.7478 11.9387 23.7479 11.9387 23.7479 11.9387C24.1157 11.8505 24.4572 11.6817 24.7218 11.4282L24.7221 11.4279C24.9188 11.2401 25.0896 11.0014 25.1539 10.7112L20.664 11.3812Z" fill="#151515"/>
<path fill-rule="evenodd" clip-rule="evenodd" d="M19.26 11.6302L9.03534 11.6095L9.03618 11.196L19.2609 11.2167L19.26 11.6302Z" fill="#151515"/>
<path fill-rule="evenodd" clip-rule="evenodd" d="M18.6343 13.1144L9.66034 13.0958L9.6612 12.6824L18.6352 12.701L18.6343 13.1144Z" fill="#151515"/>
<path fill-rule="evenodd" clip-rule="evenodd" d="M31.2787 0.811281C31.3594 0.73055 31.4903 0.73055 31.571 0.811281L32.8866 2.12688C32.9674 2.20761 32.9674 2.3385 32.8866 2.41923C32.8059 2.49997 32.675 2.49997 32.5943 2.41923L31.6316 1.45654V20.4075L32.5943 19.4448C32.675 19.364 32.8059 19.364 32.8866 19.4448C32.9674 19.5255 32.9674 19.6564 32.8866 19.7371L31.571 21.0527C31.4903 21.1335 31.3594 21.1335 31.2787 21.0527L29.9631 19.7371C29.8823 19.6564 29.8823 19.5255 29.9631 19.4448C30.0438 19.364 30.1747 19.364 30.2554 19.4448L31.2181 20.4075V1.45654L30.2554 2.41923C30.1747 2.49997 30.0438 2.49997 29.9631 2.41923C29.8823 2.3385 29.8823 2.20761 29.9631 2.12688L31.2787 0.811281Z" fill="#151515"/>
</svg>
