<svg width="26" height="28" viewBox="0 0 26 28" fill="none" xmlns="http://www.w3.org/2000/svg">
<path fill-rule="evenodd" clip-rule="evenodd" d="M23.2819 21.2861L23.2819 20.8418L23.6953 20.8418L23.6953 21.2861L23.2819 21.2861ZM23.2819 22.162L23.6953 22.162L23.6953 23.0359L23.2819 23.0359L23.2819 22.162ZM23.2819 24.3561L23.2819 23.9118L23.6953 23.9118L23.6953 24.3561L23.2819 24.3561Z" fill="#666666"/>
<path fill-rule="evenodd" clip-rule="evenodd" d="M3.00018 21.2861L3.00018 20.8418L3.41364 20.8418L3.41364 21.2861L3.00018 21.2861ZM3.00018 22.162L3.41364 22.162L3.41364 23.0359L3.00018 23.0359L3.00018 22.162ZM3.00018 24.3561L3.00018 23.9118L3.41364 23.9118L3.41364 24.3561L3.00018 24.3561Z" fill="#666666"/>
<path fill-rule="evenodd" clip-rule="evenodd" d="M23.6348 25.384C23.7155 25.4647 23.7155 25.5956 23.6348 25.6763L22.3192 26.9919C22.2384 27.0727 22.1075 27.0727 22.0268 26.9919C21.9461 26.9112 21.9461 26.7803 22.0268 26.6996L22.9895 25.7369L3.52177 25.7369L4.48446 26.6996C4.56519 26.7803 4.56519 26.9112 4.48446 26.9919C4.40373 27.0726 4.27284 27.0726 4.19211 26.9919L2.87651 25.6763C2.79578 25.5956 2.79578 25.4647 2.87651 25.384L4.19211 24.0684C4.27284 23.9876 4.40373 23.9876 4.48446 24.0684C4.5652 24.1491 4.5652 24.28 4.48446 24.3607L3.52177 25.3234L22.9895 25.3234L22.0268 24.3607C21.9461 24.28 21.9461 24.1491 22.0268 24.0684C22.1075 23.9877 22.2384 23.9877 22.3192 24.0684L23.6348 25.384Z" fill="#151515"/>
<path fill-rule="evenodd" clip-rule="evenodd" d="M6.33044 16.7345C6.33041 16.7345 6.33047 16.7345 6.33044 16.7345L3.44877 18.504L3.23242 18.1517L6.11419 16.3821C6.76668 15.9819 7.51735 15.7686 8.28342 15.7686H18.4047C19.1703 15.7686 19.9211 15.9795 20.5741 16.3821C20.574 16.3821 20.5741 16.3822 20.5741 16.3821L23.4557 18.1517L23.2394 18.504L20.3576 16.7344L20.3573 16.7342C19.77 16.372 19.0944 16.182 18.4047 16.182H8.28342C7.59418 16.182 6.91829 16.3739 6.33044 16.7345Z" fill="#151515"/>
<path fill-rule="evenodd" clip-rule="evenodd" d="M4.93999 3.31973C4.93995 3.31982 4.94002 3.31964 4.93999 3.31973L3.94457 5.80198L2.30897 7.43758V8.39504L2.25782 8.45349C1.48358 9.33833 1.0925 10.4958 1.1715 11.669L1.60307 18.1203H25.0788L25.5103 11.6691C25.5893 10.4959 25.1982 9.33833 24.424 8.45349L24.3729 8.39504V7.43758L22.7373 5.80198L21.7417 3.31945C21.277 2.16544 20.1579 1.40857 18.9153 1.40857H7.7686C6.52413 1.40857 5.40684 2.16551 4.93999 3.31973ZM1.21635 18.5338L0.758986 11.6968C0.758984 11.6967 0.758988 11.6968 0.758986 11.6968C0.674392 10.4402 1.083 9.20014 1.89551 8.24065V7.26632L3.59234 5.5695L4.55646 3.16529L4.55669 3.16474C5.08632 1.85494 6.35468 0.995117 7.7686 0.995117H18.9153C20.327 0.995117 21.5977 1.85484 22.1253 3.16501L23.0895 5.5695L24.7863 7.26632V8.24065C25.5988 9.20014 26.0074 10.4401 25.9228 11.6967C25.9228 11.6966 25.9228 11.6967 25.9228 11.6967L25.4655 18.5338H1.21635Z" fill="#151515"/>
<path fill-rule="evenodd" clip-rule="evenodd" d="M4.59265 5.97689C5.12422 6.20425 6.04518 6.44191 7.57168 6.44191H19.1732C20.6996 6.44191 21.6206 6.20425 22.1522 5.97689C22.4178 5.86328 22.5868 5.75201 22.6862 5.67353C22.736 5.63424 22.7686 5.60297 22.7874 5.58342C22.7968 5.57364 22.8028 5.56676 22.8057 5.56325L22.8079 5.56058L22.8075 5.56119L22.8068 5.56202L22.8064 5.56257L22.8062 5.56288C22.8061 5.56304 22.806 5.56321 22.9728 5.68529C23.1396 5.80737 23.1395 5.80754 23.1394 5.80772L23.1391 5.80809L23.1385 5.80891L23.1371 5.81079L23.1334 5.81556C23.1306 5.81918 23.1269 5.82367 23.1225 5.82896C23.1136 5.83956 23.1014 5.85338 23.0855 5.86994C23.0536 5.90308 23.007 5.94707 22.9423 5.99809C22.8129 6.10024 22.6122 6.22981 22.3148 6.35703C21.7202 6.61134 20.7414 6.85536 19.1732 6.85536H7.57168C6.00348 6.85536 5.02463 6.61134 4.43006 6.35703C4.13262 6.22981 3.93192 6.10024 3.80248 5.99809C3.73783 5.94707 3.6912 5.90308 3.65934 5.86994C3.64343 5.85338 3.63123 5.83956 3.62234 5.82896C3.61789 5.82367 3.61428 5.81918 3.61144 5.81556L3.60777 5.81079L3.60635 5.80891L3.60575 5.80809L3.60548 5.80772C3.60535 5.80754 3.60522 5.80737 3.77205 5.68529C3.93888 5.56321 3.93876 5.56304 3.93864 5.56288L3.93841 5.56257L3.938 5.56202L3.93738 5.56119C3.93704 5.56075 3.93688 5.56053 3.93689 5.56055L3.9391 5.56325C3.94205 5.56676 3.94802 5.57364 3.95742 5.58342C3.97621 5.60297 4.00883 5.63424 4.05861 5.67353C4.15806 5.75201 4.32702 5.86328 4.59265 5.97689Z" fill="#151515"/>
<path fill-rule="evenodd" clip-rule="evenodd" d="M2.50732 5.50539L3.7661 5.47852L3.77493 5.89187L2.51596 5.91875C2.09241 5.92743 1.67763 6.0503 1.31576 6.27182C1.32702 6.32599 1.3491 6.39963 1.39245 6.48437C1.49021 6.6755 1.70511 6.94051 2.18884 7.1637L2.01563 7.53912C1.45539 7.28063 1.16794 6.95337 1.02435 6.67265C0.953405 6.53395 0.91972 6.41074 0.903984 6.31926C0.896125 6.27357 0.892741 6.2358 0.891405 6.20789C0.890737 6.19393 0.89058 6.18242 0.890635 6.17359C0.890663 6.16917 0.890743 6.16543 0.89084 6.16237L0.890991 6.15832L0.891068 6.15669L0.891104 6.15598C0.891113 6.15582 0.891139 6.15533 1.09754 6.16687L0.891139 6.15533L0.896823 6.05363L0.98093 5.99617C1.43125 5.68852 1.96228 5.51657 2.50732 5.50539C2.50734 5.50539 2.50729 5.50539 2.50732 5.50539Z" fill="#151515"/>
<path fill-rule="evenodd" clip-rule="evenodd" d="M22.9668 5.89187L22.9756 5.47852L24.2344 5.50539C24.2344 5.50539 24.2344 5.50539 24.2344 5.50539C24.7794 5.51657 25.3105 5.68853 25.7608 5.99617L25.8449 6.05363L25.8506 6.15533L25.6442 6.16687C25.8506 6.15533 25.8506 6.15517 25.8506 6.15533L25.8506 6.15598L25.8507 6.15669L25.8507 6.15832L25.8509 6.16237C25.851 6.16543 25.8511 6.16917 25.8511 6.17359C25.8511 6.18242 25.851 6.19393 25.8503 6.20789C25.849 6.2358 25.8456 6.27357 25.8377 6.31926C25.822 6.41074 25.7883 6.53395 25.7174 6.67265C25.5738 6.95337 25.2863 7.28063 24.7261 7.53912L24.5529 7.1637C25.0366 6.94051 25.2515 6.6755 25.3493 6.48437C25.3926 6.39963 25.4147 6.32599 25.426 6.27182C25.0641 6.0503 24.6493 5.92743 24.2258 5.91875L22.9668 5.89187Z" fill="#151515"/>
<path fill-rule="evenodd" clip-rule="evenodd" d="M1.63025 18.3281V20.2176C1.63025 20.5641 1.91154 20.844 2.25663 20.844H4.38384C4.73034 20.844 5.01022 20.5627 5.01022 20.2176V19.1612H5.42368V20.2176C5.42368 20.7904 4.95935 21.2574 4.38384 21.2574H2.25663C1.68386 21.2574 1.2168 20.7931 1.2168 20.2176V18.3281H1.63025Z" fill="#151515"/>
<path fill-rule="evenodd" clip-rule="evenodd" d="M25.0514 20.2176V18.3281H25.4648V20.2176C25.4648 20.7904 25.0005 21.2574 24.425 21.2574H22.2957C21.7229 21.2574 21.2559 20.7931 21.2559 20.2176V19.1612H21.6693V20.2176C21.6693 20.5641 21.9506 20.844 22.2957 20.844H24.425C24.7715 20.844 25.0514 20.5627 25.0514 20.2176Z" fill="#151515"/>
<path fill-rule="evenodd" clip-rule="evenodd" d="M3.91497 8.85264C3.60804 8.61119 3.77322 8.11133 4.17095 8.11133H22.5758C22.969 8.11133 23.1451 8.60937 22.8307 8.85346L21.3897 9.97186H17.1249L17.5404 8.52478H9.2063L9.62182 9.97186H5.35704L3.91497 8.85264ZM8.77614 8.52478H4.17095C4.17064 8.52478 4.17035 8.52479 4.17009 8.52479C4.17002 8.52495 4.16996 8.52512 4.1699 8.5253C4.16971 8.52584 4.16959 8.52634 4.16952 8.52678C4.16974 8.52698 4.17001 8.52721 4.17033 8.52747L5.49866 9.55841H9.07294L8.77614 8.52478ZM17.9706 8.52478L17.6738 9.55841H21.2481L22.5772 8.52687C22.5772 8.52687 22.5772 8.52686 22.5772 8.52687C22.5775 8.52666 22.5777 8.52644 22.5779 8.52626C22.5779 8.52614 22.5779 8.52601 22.5778 8.52588C22.5777 8.52549 22.5775 8.52513 22.5774 8.52483C22.5769 8.5248 22.5764 8.52478 22.5758 8.52478H17.9706Z" fill="#151515"/>
<path fill-rule="evenodd" clip-rule="evenodd" d="M15.6584 9.97107H11.0215V9.55762H15.6584V9.97107Z" fill="#151515"/>
</svg>
