<svg width="26" height="27" viewBox="0 0 26 27" fill="none" xmlns="http://www.w3.org/2000/svg">
<path fill-rule="evenodd" clip-rule="evenodd" d="M25.0515 19.8855L25.0515 19.4961L25.465 19.4961L25.465 19.8855L25.0515 19.8855ZM25.0515 21.4375L25.0515 20.6643L25.465 20.6643L25.465 21.4375L25.0515 21.4375ZM25.0515 22.9792L25.0515 22.206L25.465 22.206L25.465 22.9792L25.0515 22.9792ZM25.0515 24.1474L25.0515 23.7581L25.465 23.7581L25.465 24.1474L25.0515 24.1474Z" fill="#666666"/>
<path fill-rule="evenodd" clip-rule="evenodd" d="M1.21661 19.8855L1.21661 19.4961L1.63007 19.4961L1.63007 19.8855L1.21661 19.8855ZM1.21661 21.4375L1.21661 20.6643L1.63007 20.6643L1.63007 21.4375L1.21661 21.4375ZM1.21661 22.9792L1.21661 22.206L1.63007 22.206L1.63007 22.9792L1.21661 22.9792ZM1.21661 24.1474L1.21661 23.7581L1.63007 23.7581L1.63007 24.1474L1.21661 24.1474Z" fill="#666666"/>
<path fill-rule="evenodd" clip-rule="evenodd" d="M25.2891 25.176C25.3698 25.2567 25.3698 25.3876 25.2891 25.4683L23.9735 26.7839C23.8927 26.8647 23.7618 26.8647 23.6811 26.7839C23.6004 26.7032 23.6004 26.5723 23.6811 26.4916L24.6438 25.5289L1.86844 25.5289L2.83114 26.4915C2.91187 26.5723 2.91187 26.7032 2.83113 26.7839C2.7504 26.8646 2.61951 26.8646 2.53878 26.7839L1.22318 25.4683C1.14245 25.3876 1.14245 25.2567 1.22318 25.1759L2.53878 23.8604C2.61951 23.7796 2.75041 23.7796 2.83114 23.8604C2.91187 23.9411 2.91187 24.072 2.83114 24.1527L1.86844 25.1154L24.6438 25.1154L23.6811 24.1527C23.6004 24.072 23.6004 23.9411 23.6811 23.8604C23.7618 23.7796 23.8927 23.7796 23.9735 23.8604L25.2891 25.176Z" fill="#151515"/>
<path fill-rule="evenodd" clip-rule="evenodd" d="M6.33044 16.3204C6.33041 16.3204 6.33047 16.3204 6.33044 16.3204L3.44877 18.0899L3.23242 17.7376L6.11419 15.968C6.76668 15.5678 7.51735 15.3545 8.28342 15.3545H18.4047C19.1703 15.3545 19.9211 15.5655 20.5741 15.9681C20.574 15.968 20.5741 15.9681 20.5741 15.9681L23.4557 17.7376L23.2394 18.0899L20.3576 16.3204L20.3573 16.3201C19.77 15.958 19.0944 15.7679 18.4047 15.7679H8.28342C7.59418 15.7679 6.91829 15.9599 6.33044 16.3204Z" fill="#151515"/>
<path fill-rule="evenodd" clip-rule="evenodd" d="M4.93999 2.90567C4.93995 2.90576 4.94002 2.90557 4.93999 2.90567L3.94457 5.38791L2.30897 7.02352V7.98097L2.25782 8.03943C1.48358 8.92427 1.0925 10.0817 1.1715 11.2549L1.60307 17.7063H25.0788L25.5103 11.255C25.5893 10.0818 25.1982 8.92427 24.424 8.03943L24.3729 7.98097V7.02352L22.7373 5.38791L21.7417 2.90539C21.277 1.75138 20.1579 0.994507 18.9153 0.994507H7.7686C6.52413 0.994507 5.40684 1.75145 4.93999 2.90567ZM1.21635 18.1197L0.758986 11.2827C0.758984 11.2827 0.758988 11.2827 0.758986 11.2827C0.674392 10.0261 1.083 8.78607 1.89551 7.82659V6.85226L3.59234 5.15543L4.55646 2.75123L4.55669 2.75067C5.08632 1.44087 6.35468 0.581055 7.7686 0.581055H18.9153C20.327 0.581055 21.5977 1.44078 22.1253 2.75095L23.0895 5.15544L24.7863 6.85226V7.82659C25.5988 8.78607 26.0074 10.026 25.9228 11.2826C25.9228 11.2826 25.9228 11.2826 25.9228 11.2826L25.4655 18.1197H1.21635Z" fill="#151515"/>
<path fill-rule="evenodd" clip-rule="evenodd" d="M4.59265 5.56283C5.12422 5.79019 6.04518 6.02784 7.57168 6.02784H19.1732C20.6996 6.02784 21.6206 5.79019 22.1522 5.56283C22.4178 5.44921 22.5868 5.33795 22.6862 5.25947C22.736 5.22018 22.7686 5.18891 22.7874 5.16936C22.7968 5.15958 22.8028 5.1527 22.8057 5.14919L22.8079 5.14651L22.8075 5.14712L22.8068 5.14796L22.8064 5.14851L22.8062 5.14882C22.8061 5.14898 22.806 5.14915 22.9728 5.27123C23.1396 5.39331 23.1395 5.39348 23.1394 5.39366L23.1391 5.39403L23.1385 5.39484L23.1371 5.39672L23.1334 5.40149C23.1306 5.40511 23.1269 5.4096 23.1225 5.4149C23.1136 5.4255 23.1014 5.43932 23.0855 5.45588C23.0536 5.48902 23.007 5.533 22.9423 5.58403C22.8129 5.68618 22.6122 5.81575 22.3148 5.94297C21.7202 6.19728 20.7414 6.4413 19.1732 6.4413H7.57168C6.00348 6.4413 5.02463 6.19728 4.43006 5.94297C4.13262 5.81575 3.93192 5.68618 3.80248 5.58403C3.73783 5.533 3.6912 5.48902 3.65934 5.45588C3.64343 5.43932 3.63123 5.4255 3.62234 5.4149C3.61789 5.4096 3.61428 5.40511 3.61144 5.40149L3.60777 5.39672L3.60635 5.39484L3.60575 5.39403L3.60548 5.39366C3.60535 5.39348 3.60522 5.39331 3.77205 5.27123C3.93888 5.14915 3.93876 5.14898 3.93864 5.14882L3.93841 5.14851L3.938 5.14796L3.93738 5.14712C3.93704 5.14668 3.93688 5.14647 3.93689 5.14648L3.9391 5.14919C3.94205 5.1527 3.94802 5.15958 3.95742 5.16936C3.97621 5.18891 4.00883 5.22018 4.05861 5.25947C4.15806 5.33795 4.32702 5.44921 4.59265 5.56283Z" fill="#151515"/>
<path fill-rule="evenodd" clip-rule="evenodd" d="M2.50732 5.09132L3.7661 5.06445L3.77493 5.47781L2.51596 5.50469C2.09241 5.51337 1.67763 5.63624 1.31576 5.85776C1.32702 5.91193 1.3491 5.98557 1.39245 6.07031C1.49021 6.26144 1.70511 6.52645 2.18884 6.74964L2.01563 7.12506C1.45539 6.86657 1.16794 6.53931 1.02435 6.25859C0.953405 6.11988 0.91972 5.99667 0.903984 5.9052C0.896125 5.85951 0.892741 5.82173 0.891405 5.79383C0.890737 5.77987 0.89058 5.76836 0.890635 5.75953C0.890663 5.75511 0.890743 5.75136 0.89084 5.74831L0.890991 5.74426L0.891068 5.74263L0.891104 5.74192C0.891113 5.74176 0.891139 5.74127 1.09754 5.7528L0.891139 5.74127L0.896823 5.63957L0.98093 5.58211C1.43125 5.27446 1.96228 5.10251 2.50732 5.09132C2.50734 5.09132 2.50729 5.09132 2.50732 5.09132Z" fill="#151515"/>
<path fill-rule="evenodd" clip-rule="evenodd" d="M22.9668 5.47781L22.9756 5.06445L24.2344 5.09132C24.2344 5.09132 24.2344 5.09132 24.2344 5.09132C24.7794 5.10251 25.3105 5.27446 25.7608 5.58211L25.8449 5.63957L25.8506 5.74127L25.6442 5.7528C25.8506 5.74127 25.8506 5.74111 25.8506 5.74127L25.8506 5.74192L25.8507 5.74263L25.8507 5.74426L25.8509 5.74831C25.851 5.75136 25.8511 5.75511 25.8511 5.75953C25.8511 5.76836 25.851 5.77987 25.8503 5.79383C25.849 5.82173 25.8456 5.85951 25.8377 5.9052C25.822 5.99667 25.7883 6.11988 25.7174 6.25859C25.5738 6.53931 25.2863 6.86657 24.7261 7.12506L24.5529 6.74964C25.0366 6.52645 25.2515 6.26144 25.3493 6.07031C25.3926 5.98557 25.4147 5.91193 25.426 5.85776C25.0641 5.63624 24.6493 5.51337 24.2258 5.50469L22.9668 5.47781Z" fill="#151515"/>
<path fill-rule="evenodd" clip-rule="evenodd" d="M1.63025 17.9141V19.8035C1.63025 20.15 1.91154 20.4299 2.25663 20.4299H4.38384C4.73034 20.4299 5.01022 20.1486 5.01022 19.8035V18.7472H5.42368V19.8035C5.42368 20.3763 4.95935 20.8434 4.38384 20.8434H2.25663C1.68386 20.8434 1.2168 20.379 1.2168 19.8035V17.9141H1.63025Z" fill="#151515"/>
<path fill-rule="evenodd" clip-rule="evenodd" d="M25.0514 19.8035V17.9141H25.4648V19.8035C25.4648 20.3763 25.0005 20.8434 24.425 20.8434H22.2957C21.7229 20.8434 21.2559 20.379 21.2559 19.8035V18.7472H21.6693V19.8035C21.6693 20.15 21.9506 20.4299 22.2957 20.4299H24.425C24.7715 20.4299 25.0514 20.1486 25.0514 19.8035Z" fill="#151515"/>
<path fill-rule="evenodd" clip-rule="evenodd" d="M3.91497 8.43858C3.60804 8.19713 3.77322 7.69727 4.17095 7.69727H22.5758C22.969 7.69727 23.1451 8.19531 22.8307 8.4394L21.3897 9.5578H17.1249L17.5404 8.11072H9.2063L9.62182 9.5578H5.35704L3.91497 8.43858ZM8.77614 8.11072H4.17095C4.17064 8.11072 4.17035 8.11072 4.17009 8.11073C4.17002 8.11089 4.16996 8.11106 4.1699 8.11124C4.16971 8.11178 4.16959 8.11228 4.16952 8.11272C4.16974 8.11292 4.17001 8.11315 4.17033 8.11341L5.49866 9.14435H9.07294L8.77614 8.11072ZM17.9706 8.11072L17.6738 9.14435H21.2481L22.5772 8.1128C22.5772 8.11281 22.5772 8.1128 22.5772 8.1128C22.5775 8.11259 22.5777 8.11238 22.5779 8.1122C22.5779 8.11208 22.5779 8.11195 22.5778 8.11182C22.5777 8.11142 22.5775 8.11107 22.5774 8.11077C22.5769 8.11074 22.5764 8.11072 22.5758 8.11072H17.9706Z" fill="#151515"/>
<path fill-rule="evenodd" clip-rule="evenodd" d="M15.6584 9.55701H11.0215V9.14355H15.6584V9.55701Z" fill="#151515"/>
</svg>
