<svg width="29" height="28" viewBox="0 0 29 28" fill="none" xmlns="http://www.w3.org/2000/svg">
<path fill-rule="evenodd" clip-rule="evenodd" d="M24.694 21.4961L24.694 21.0518L25.1074 21.0518L25.1074 21.4961L24.694 21.4961ZM24.694 22.372L25.1074 22.372L25.1074 23.2459L24.694 23.2459L24.694 22.372ZM24.694 24.5661L24.694 24.1218L25.1074 24.1218L25.1074 24.5661L24.694 24.5661Z" fill="#666666"/>
<path fill-rule="evenodd" clip-rule="evenodd" d="M4.22913 21.4961L4.22913 21.0518L4.64258 21.0518L4.64258 21.4961L4.22913 21.4961ZM4.22913 22.372L4.64258 22.372L4.64258 23.2459L4.22913 23.2459L4.22913 22.372ZM4.22913 24.5661L4.22913 24.1218L4.64258 24.1218L4.64258 24.5661L4.22913 24.5661Z" fill="#666666"/>
<path fill-rule="evenodd" clip-rule="evenodd" d="M25.0469 25.5939C25.1276 25.6747 25.1276 25.8056 25.0469 25.8863L23.7313 27.2019C23.6505 27.2826 23.5196 27.2826 23.4389 27.2019C23.3582 27.1212 23.3582 26.9903 23.4389 26.9095L24.4016 25.9468L4.93388 25.9468L5.89657 26.9095C5.9773 26.9902 5.9773 27.1211 5.89657 27.2019C5.81584 27.2826 5.68495 27.2826 5.60422 27.2019L4.28862 25.8863C4.20789 25.8055 4.20789 25.6746 4.28862 25.5939L5.60422 24.2783C5.68495 24.1976 5.81584 24.1976 5.89657 24.2783C5.9773 24.3591 5.9773 24.4899 5.89657 24.5707L4.93388 25.5334L24.4016 25.5334L23.4389 24.5707C23.3582 24.49 23.3582 24.3591 23.4389 24.2783C23.5197 24.1976 23.6505 24.1976 23.7313 24.2783L25.0469 25.5939Z" fill="#151515"/>
<path fill-rule="evenodd" clip-rule="evenodd" d="M7.61107 17.5692C7.61105 17.5692 7.61109 17.5692 7.61107 17.5692L6.08549 18.5056L5.8692 18.1533L7.39484 17.2168C8.04733 16.8166 8.79798 16.6033 9.56405 16.6033H19.6854C20.4511 16.6033 21.2019 16.8143 21.8549 17.217L21.8591 17.2195L23.2336 18.1587L23.0004 18.5001L21.6339 17.5664C21.0475 17.2059 20.3734 17.0167 19.6854 17.0167H9.56405C8.87479 17.0167 8.19892 17.2087 7.61107 17.5692Z" fill="#151515"/>
<path fill-rule="evenodd" clip-rule="evenodd" d="M8.31333 1.41052C7.48667 1.41052 6.72447 1.85607 6.3187 2.5766L3.59584 7.40814V8.3912L2.59617 9.65486L2.59593 9.65516C2.2944 10.0349 2.15293 10.515 2.19948 10.9972L2.88237 18.1223H26.3691L27.0519 10.998C27.0519 10.9978 27.0519 10.9977 27.0519 10.9975C27.0965 10.5148 26.9548 10.0344 26.6551 9.65467L25.6556 8.3912V7.40815L22.9328 2.57666C22.527 1.85612 21.7648 1.41052 20.9381 1.41052H8.31333ZM2.50665 18.5357L1.78794 11.037C1.78794 11.0369 1.78795 11.037 1.78794 11.037C1.73118 10.4485 1.90385 9.86196 2.27195 9.39829C2.27188 9.39838 2.27201 9.39821 2.27195 9.39829L3.18239 8.24743V7.29966L5.95845 2.37372C5.95844 2.37374 5.95846 2.37371 5.95845 2.37372C6.43747 1.52317 7.33736 0.99707 8.31333 0.99707H20.9381C21.9141 0.99707 22.814 1.52314 23.293 2.37372L26.069 7.29966V8.24743L26.9795 9.39834C27.3454 9.86189 27.5181 10.4482 27.4636 11.0362L27.4635 11.0368L26.7448 18.5357H2.50665Z" fill="#151515"/>
<path fill-rule="evenodd" clip-rule="evenodd" d="M3.59443 5.47638V7.35378H3.18098V5.89875L2.13315 5.92112C1.70782 5.9298 1.29458 6.05262 0.932941 6.27417C0.944203 6.32834 0.966286 6.40199 1.00964 6.48674C1.10464 6.67247 1.31024 6.92796 1.76566 7.14705H2.55253V7.56051H1.67403L1.63281 7.54149C1.07258 7.28301 0.785129 6.95574 0.641541 6.67502C0.570593 6.53632 0.536907 6.41311 0.521172 6.32163C0.513312 6.27594 0.509928 6.23817 0.508593 6.21026C0.507924 6.19631 0.507768 6.18479 0.507823 6.17596C0.50785 6.17154 0.507931 6.1678 0.508027 6.16474L0.508179 6.16069L0.508255 6.15906L0.508292 6.15835C0.5083 6.15819 0.508327 6.1577 0.714731 6.16924L0.508327 6.1577L0.51401 6.056L0.598117 5.99854C1.04835 5.69095 1.57722 5.51895 2.12442 5.50776C2.12439 5.50776 2.12445 5.50776 2.12442 5.50776L3.59443 5.47638Z" fill="#151515"/>
<path fill-rule="evenodd" clip-rule="evenodd" d="M25.7212 5.47656L27.1839 5.50779C27.1839 5.50779 27.184 5.50779 27.1839 5.50779C27.729 5.51897 28.26 5.69093 28.7103 5.99857L28.7944 6.05603L28.8001 6.15773L28.5937 6.16927C28.8001 6.15773 28.8001 6.15757 28.8001 6.15773L28.8001 6.15838L28.8002 6.15909L28.8003 6.16072L28.8004 6.16477C28.8005 6.16783 28.8006 6.17157 28.8006 6.17599C28.8007 6.18482 28.8005 6.19633 28.7998 6.21029C28.7985 6.2382 28.7951 6.27597 28.7873 6.32166C28.7715 6.41314 28.7378 6.53635 28.6669 6.67505C28.5233 6.95577 28.2359 7.28303 27.6756 7.54152L27.6344 7.56053H26.6939V7.14708H27.5428C27.9982 6.92799 28.2038 6.6725 28.2988 6.48677C28.3421 6.40203 28.3642 6.32839 28.3755 6.27422C28.0136 6.0527 27.599 5.92983 27.1755 5.92115L26.1203 5.89863L26.0695 7.36099L25.6562 7.34663L25.7212 5.47656Z" fill="#151515"/>
<path fill-rule="evenodd" clip-rule="evenodd" d="M2.91556 18.3301V20.2196C2.91556 20.5661 3.19684 20.846 3.54194 20.846H5.66915C6.01565 20.846 6.29553 20.5647 6.29553 20.2196V19.1632H6.70898V20.2196C6.70898 20.7924 6.24466 21.2595 5.66915 21.2595H3.54194C2.96917 21.2595 2.50211 20.7951 2.50211 20.2196V18.3301H2.91556Z" fill="#151515"/>
<path fill-rule="evenodd" clip-rule="evenodd" d="M26.3346 20.2196V18.3301H26.748V20.2196C26.748 20.7923 26.2837 21.2594 25.7082 21.2594H23.5789C23.0061 21.2594 22.5391 20.7951 22.5391 20.2196V19.1632H22.9525V20.2196C22.9525 20.5661 23.2338 20.8459 23.5789 20.8459H25.7082C26.0547 20.8459 26.3346 20.5647 26.3346 20.2196Z" fill="#151515"/>
<path fill-rule="evenodd" clip-rule="evenodd" d="M25.8895 7.56091H3.41211V7.14746H25.8895V7.56091Z" fill="#151515"/>
<path fill-rule="evenodd" clip-rule="evenodd" d="M3.17773 10.3721L8.41507 11.1536L9.26141 13.5166L4.92943 12.4856C4.50348 12.3836 4.0921 12.1844 3.7655 11.8715C3.46944 11.5888 3.18117 11.1688 3.17877 10.613L3.17773 10.3721ZM3.61944 10.856C3.68373 11.1462 3.85447 11.3848 4.05125 11.5727L4.05153 11.5729C4.31613 11.8264 4.65748 11.9953 5.0253 12.0834C5.02524 12.0834 5.02535 12.0834 5.0253 12.0834L8.61492 12.9377L8.10927 11.526L3.61944 10.856Z" fill="#151515"/>
<path fill-rule="evenodd" clip-rule="evenodd" d="M26.07 10.3721L26.069 10.613C26.0666 11.1688 25.7782 11.5889 25.4821 11.8716C25.1555 12.1844 24.7445 12.3835 24.3186 12.4855L19.9863 13.5166L20.8327 11.1536L26.07 10.3721ZM21.1385 11.526L20.6328 12.9377L24.2223 12.0835C24.2222 12.0835 24.2223 12.0835 24.2223 12.0835C24.5901 11.9953 24.9316 11.8264 25.1962 11.5729L25.1965 11.5727C25.3933 11.3848 25.564 11.1462 25.6283 10.856L21.1385 11.526Z" fill="#151515"/>
<path fill-rule="evenodd" clip-rule="evenodd" d="M19.7364 11.7749L9.51172 11.7543L9.51255 11.3408L19.7372 11.3615L19.7364 11.7749Z" fill="#151515"/>
<path fill-rule="evenodd" clip-rule="evenodd" d="M19.1107 13.2592L10.1367 13.2406L10.1376 12.8271L19.1116 12.8458L19.1107 13.2592Z" fill="#151515"/>
</svg>
