<svg width="43" height="23" viewBox="0 0 43 23" fill="none" xmlns="http://www.w3.org/2000/svg">
<path fill-rule="evenodd" clip-rule="evenodd" d="M41.8248 14.531L41.8248 14.1621L42.2383 14.1621L42.2383 14.531L41.8248 14.531ZM41.8248 15.9784L41.8248 15.2546L42.2383 15.2546L42.2383 15.9784L41.8248 15.9784ZM41.8248 16.6974L42.2383 16.6974L42.2383 17.4151L41.8248 17.4151L41.8248 16.6974ZM41.8248 18.858L41.8248 18.1341L42.2383 18.1341L42.2383 18.858L41.8248 18.858ZM41.8248 19.9504L41.8248 19.5815L42.2383 19.5815L42.2383 19.9504L41.8248 19.9504Z" fill="#666666"/>
<path fill-rule="evenodd" clip-rule="evenodd" d="M1.3053 18.9873L1.3053 18.2118L1.71875 18.2118L1.71875 18.9873L1.3053 18.9873ZM1.3053 20.1578L1.3053 19.7626L1.71875 19.7626L1.71875 20.1578L1.3053 20.1578ZM1.3053 17.0148L1.3053 16.6725L1.71875 16.6725L1.71875 17.0557M1.3053 17.0556L1.3053 17.0578L1.3053 17.4414L1.71875 17.4414L1.71875 17.0583M1.3053 17.0148L1.3053 17.0556L1.3053 17.0148ZM1.3053 15.9021L1.3053 15.1266L1.71875 15.1266L1.71875 15.9021L1.3053 15.9021ZM1.3053 14.3513L1.3053 13.9561L1.71875 13.9561L1.71875 14.3513L1.3053 14.3513Z" fill="#666666"/>
<path fill-rule="evenodd" clip-rule="evenodd" d="M42.1777 21.1291C42.2585 21.2098 42.2585 21.3407 42.1777 21.4214L40.8621 22.737C40.7814 22.8178 40.6505 22.8178 40.5698 22.737C40.489 22.6563 40.489 22.5254 40.5698 22.4447L41.5325 21.482L2.01229 21.482L2.97498 22.4447C3.05572 22.5254 3.05572 22.6563 2.97499 22.7371C2.89426 22.8178 2.76336 22.8178 2.68263 22.7371L1.36703 21.4215C1.2863 21.3407 1.2863 21.2098 1.36703 21.1291L2.68263 19.8135C2.76336 19.7328 2.89425 19.7328 2.97498 19.8135C3.05571 19.8942 3.05571 20.0251 2.97498 20.1059L2.01229 21.0686L41.5325 21.0685L40.5698 20.1058C40.489 20.0251 40.489 19.8942 40.5698 19.8135C40.6505 19.7327 40.7814 19.7327 40.8621 19.8135L42.1777 21.1291Z" fill="#151515"/>
<path fill-rule="evenodd" clip-rule="evenodd" d="M25.0989 0.727922C22.7679 0.664814 20.4611 1.21243 18.4025 2.30996L12.4654 5.47182L5.70575 6.37394C4.06989 6.59179 2.53707 7.29388 1.30408 8.39043V13.6564L4.37372 13.6835L4.37007 14.097L0.890625 14.0662V8.20687L0.95828 8.14536C2.2649 6.95733 3.90188 6.19708 5.65106 5.96412C5.65104 5.96413 5.65108 5.96412 5.65106 5.96412L12.3369 5.07186L18.208 1.94511C20.3294 0.814132 22.707 0.24956 25.1101 0.314621C27.6515 0.384064 31.0978 0.646296 34.3168 1.44758C37.5273 2.24677 40.5549 3.59257 42.2086 5.86121L42.2516 5.92021L42.0271 10.4844L42.68 11.9787L41.1013 13.9504L37.6346 14.2369L37.6006 13.8248L40.8898 13.5531L42.2011 11.9153L41.6094 10.561L41.8315 6.04637C40.2566 3.93382 37.3741 2.6347 34.2169 1.84879C31.0392 1.05777 27.6264 0.796985 25.0989 0.727922Z" fill="#151515"/>
<path fill-rule="evenodd" clip-rule="evenodd" d="M11.3688 13.7432L30.8528 13.9127L30.8492 14.3261L11.3652 14.1566L11.3688 13.7432Z" fill="#151515"/>
<path d="M25.3116 2.11462C25.4336 2.11462 25.5555 2.11462 25.6775 2.11876C28.0362 2.18491 31.3687 2.45366 34.4282 3.33224L31.4844 4.77519L15.242 5.64551L19.2462 3.58652C21.1192 2.62317 23.2175 2.11462 25.3116 2.11462ZM25.3116 1.70117C23.1389 1.70117 20.9931 2.22419 19.0581 3.21854L13.3359 6.16232L31.594 5.18244L35.5445 3.24748C32.2287 2.12083 28.4352 1.78386 25.692 1.70737C25.5659 1.70324 25.4398 1.70117 25.3137 1.70117H25.3116Z" fill="#151515"/>
<path fill-rule="evenodd" clip-rule="evenodd" d="M42.0331 5.78027L42.0525 6.19327L38.3401 6.36773L37.6213 6.98112H42.0035V7.39458H36.5L38.1793 5.96138L42.0331 5.78027Z" fill="#151515"/>
<path fill-rule="evenodd" clip-rule="evenodd" d="M41.8724 10.7245L37.5235 11.8908L30.8542 12.0277L30.8457 11.6144L37.4648 11.4784L41.7653 10.3252L41.8724 10.7245Z" fill="#151515"/>
<path fill-rule="evenodd" clip-rule="evenodd" d="M29.5169 12.0589L12.5591 12.4L12.5508 11.9866L29.5085 11.6455L29.5169 12.0589Z" fill="#151515"/>
<path fill-rule="evenodd" clip-rule="evenodd" d="M11.2774 12.429L1.10232 12.6398L1.09375 12.2265L11.2688 12.0156L11.2774 12.429Z" fill="#151515"/>
<path fill-rule="evenodd" clip-rule="evenodd" d="M4.26884 8.50525H1.09766V8.0918H4.26884V8.50525Z" fill="#151515"/>
<path fill-rule="evenodd" clip-rule="evenodd" d="M21.9008 7.29001L19.5317 7.39338L19.5137 6.98032L21.8828 6.87695L21.9008 7.29001Z" fill="#151515"/>
<path fill-rule="evenodd" clip-rule="evenodd" d="M24.767 2.04482L24.2047 5.40412L23.7969 5.33586L24.3592 1.97656L24.767 2.04482Z" fill="#151515"/>
<path fill-rule="evenodd" clip-rule="evenodd" d="M24.0709 6.19809L23.0972 12.0195L22.6895 11.9513L23.6631 6.12988L24.0709 6.19809Z" fill="#151515"/>
<path d="M7.81707 16.5843C9.7774 16.5843 11.3666 14.9952 11.3666 13.0348C11.3666 11.0745 9.7774 9.48535 7.81707 9.48535C5.85674 9.48535 4.26758 11.0745 4.26758 13.0348C4.26758 14.9952 5.85674 16.5843 7.81707 16.5843Z" fill="white"/>
<path fill-rule="evenodd" clip-rule="evenodd" d="M7.81676 9.69275C5.97061 9.69275 4.474 11.1894 4.474 13.0355C4.474 14.8817 5.97061 16.3783 7.81676 16.3783C9.66292 16.3783 11.1595 14.8817 11.1595 13.0355C11.1595 11.1894 9.66292 9.69275 7.81676 9.69275ZM4.06055 13.0355C4.06055 10.961 5.74226 9.2793 7.81676 9.2793C9.89126 9.2793 11.573 10.961 11.573 13.0355C11.573 15.11 9.89126 16.7917 7.81676 16.7917C5.74226 16.7917 4.06055 15.11 4.06055 13.0355Z" fill="#151515"/>
<path fill-rule="evenodd" clip-rule="evenodd" d="M7.81409 10.8394C6.60107 10.8394 5.61865 11.8218 5.61865 13.0348H5.2052C5.2052 11.5934 6.37273 10.4259 7.81409 10.4259C9.25544 10.4259 10.423 11.5934 10.423 13.0348H10.0095C10.0095 11.8218 9.0271 10.8394 7.81409 10.8394Z" fill="#151515"/>
<path d="M34.2136 16.5843C36.1739 16.5843 37.763 14.9952 37.763 13.0348C37.763 11.0745 36.1739 9.48535 34.2136 9.48535C32.2532 9.48535 30.6641 11.0745 30.6641 13.0348C30.6641 14.9952 32.2532 16.5843 34.2136 16.5843Z" fill="white"/>
<path fill-rule="evenodd" clip-rule="evenodd" d="M34.2132 9.69275C32.3671 9.69275 30.8705 11.1894 30.8705 13.0355C30.8705 14.8817 32.3671 16.3783 34.2132 16.3783C36.0594 16.3783 37.556 14.8817 37.556 13.0355C37.556 11.1894 36.0594 9.69275 34.2132 9.69275ZM30.457 13.0355C30.457 10.961 32.1387 9.2793 34.2132 9.2793C36.2877 9.2793 37.9695 10.961 37.9695 13.0355C37.9695 15.11 36.2877 16.7917 34.2132 16.7917C32.1387 16.7917 30.457 15.11 30.457 13.0355Z" fill="#151515"/>
<path fill-rule="evenodd" clip-rule="evenodd" d="M34.2125 10.8394C32.9995 10.8394 32.0171 11.8218 32.0171 13.0348H31.6036C31.6036 11.5934 32.7712 10.4259 34.2125 10.4259C35.6539 10.4259 36.8214 11.5934 36.8214 13.0348H36.408C36.408 11.8218 35.4255 10.8394 34.2125 10.8394Z" fill="#151515"/>
</svg>
