<svg width="43" height="24" viewBox="0 0 43 24" fill="none" xmlns="http://www.w3.org/2000/svg">
<path fill-rule="evenodd" clip-rule="evenodd" d="M34.1744 14.9451L34.1744 14.5762L34.5879 14.5762L34.5879 14.9451L34.1744 14.9451ZM34.1744 16.3925L34.1744 15.6686L34.5879 15.6686L34.5879 16.3925L34.1744 16.3925ZM34.1744 17.1115L34.5879 17.1115L34.5879 17.8292L34.1744 17.8292L34.1744 17.1115ZM34.1744 19.272L34.1744 18.5482L34.5879 18.5482L34.5879 19.272L34.1744 19.272ZM34.1744 20.3645L34.1744 19.9956L34.5879 19.9956L34.5879 20.3645L34.1744 20.3645Z" fill="#666666"/>
<path fill-rule="evenodd" clip-rule="evenodd" d="M7.50647 19.4014L7.50647 18.6258L7.91992 18.6258L7.91992 19.4014L7.50647 19.4014ZM7.50647 20.5719L7.50647 20.1767L7.91992 20.1767L7.91992 20.5719L7.50647 20.5719ZM7.50647 17.4288L7.50647 17.0865L7.91992 17.0865L7.91992 17.4698M7.50647 17.4697L7.50647 17.4719L7.50647 17.8555L7.91992 17.8555L7.91992 17.4724M7.50647 17.4288L7.50647 17.4697L7.50647 17.4288ZM7.50647 16.3162L7.50647 15.5406L7.91992 15.5406L7.91992 16.3162L7.50647 16.3162ZM7.50647 14.7654L7.50647 14.3701L7.91992 14.3701L7.91992 14.7654L7.50647 14.7654Z" fill="#666666"/>
<path fill-rule="evenodd" clip-rule="evenodd" d="M34.5273 21.5431C34.6081 21.6239 34.6081 21.7548 34.5273 21.8355L33.2117 23.1511C33.131 23.2318 33.0001 23.2318 32.9194 23.1511C32.8387 23.0704 32.8387 22.9395 32.9194 22.8587L33.8821 21.896L8.21255 21.8961L9.17525 22.8588C9.25598 22.9395 9.25598 23.0704 9.17525 23.1511C9.09452 23.2319 8.96363 23.2319 8.8829 23.1511L7.5673 21.8355C7.48657 21.7548 7.48657 21.6239 7.5673 21.5432L8.88289 20.2276C8.96362 20.1468 9.09451 20.1468 9.17525 20.2276C9.25598 20.3083 9.25598 20.4392 9.17525 20.5199L8.21255 21.4826L33.8821 21.4826L32.9194 20.5199C32.8387 20.4392 32.8387 20.3083 32.9194 20.2275C33.0001 20.1468 33.131 20.1468 33.2117 20.2275L34.5273 21.5431Z" fill="#151515"/>
<path fill-rule="evenodd" clip-rule="evenodd" d="M25.0989 1.14198C22.7679 1.07888 20.4611 1.62649 18.4025 2.72402L12.4654 5.88588L5.70575 6.78801C4.06989 7.00586 2.53707 7.70795 1.30408 8.80449V14.0705L4.37372 14.0976L4.37007 14.511L0.890625 14.4803V8.62094L0.95828 8.55942C2.2649 7.37139 3.90188 6.61114 5.65106 6.37819C5.65104 6.37819 5.65108 6.37818 5.65106 6.37819L12.3369 5.48592L18.208 2.35918C20.3294 1.22819 22.707 0.663622 25.1101 0.728684C27.6515 0.798127 31.0978 1.06036 34.3168 1.86165C37.5273 2.66083 40.5549 4.00663 42.2086 6.27527L42.2516 6.33427L42.0271 10.8985L42.68 12.3928L41.1013 14.3645L37.6346 14.6509L37.6006 14.2389L40.8898 13.9671L42.2011 12.3294L41.6094 10.9751L41.8315 6.46043C40.2566 4.34788 37.3741 3.04876 34.2169 2.26286C31.0392 1.47183 27.6264 1.21105 25.0989 1.14198Z" fill="#151515"/>
<path fill-rule="evenodd" clip-rule="evenodd" d="M11.3688 14.1572L30.8528 14.3267L30.8492 14.7402L11.3652 14.5707L11.3688 14.1572Z" fill="#151515"/>
<path d="M25.3116 2.52869C25.4336 2.52869 25.5555 2.52869 25.6775 2.53282C28.0362 2.59897 31.3687 2.86772 34.4282 3.7463L31.4844 5.18925L15.242 6.05957L19.2462 4.00058C21.1192 3.03723 23.2175 2.52869 25.3116 2.52869ZM25.3116 2.11523C23.1389 2.11523 20.9931 2.63825 19.0581 3.6326L13.3359 6.57639L31.594 5.5965L35.5445 3.66155C32.2287 2.53489 28.4352 2.19792 25.692 2.12144C25.5659 2.1173 25.4398 2.11523 25.3137 2.11523H25.3116Z" fill="#151515"/>
<path fill-rule="evenodd" clip-rule="evenodd" d="M42.0331 6.19434L42.0525 6.60733L38.3401 6.7818L37.6213 7.39519H42.0035V7.80864H36.5L38.1793 6.37544L42.0331 6.19434Z" fill="#151515"/>
<path fill-rule="evenodd" clip-rule="evenodd" d="M41.8724 11.1386L37.5235 12.3048L30.8542 12.4418L30.8457 12.0284L37.4648 11.8925L41.7653 10.7393L41.8724 11.1386Z" fill="#151515"/>
<path fill-rule="evenodd" clip-rule="evenodd" d="M29.5169 12.4729L12.5591 12.814L12.5508 12.4007L29.5085 12.0596L29.5169 12.4729Z" fill="#151515"/>
<path fill-rule="evenodd" clip-rule="evenodd" d="M11.2774 12.8431L1.10232 13.0539L1.09375 12.6405L11.2688 12.4297L11.2774 12.8431Z" fill="#151515"/>
<path fill-rule="evenodd" clip-rule="evenodd" d="M4.26884 8.91931H1.09766V8.50586H4.26884V8.91931Z" fill="#151515"/>
<path fill-rule="evenodd" clip-rule="evenodd" d="M21.9008 7.70408L19.5317 7.80744L19.5137 7.39438L21.8828 7.29102L21.9008 7.70408Z" fill="#151515"/>
<path fill-rule="evenodd" clip-rule="evenodd" d="M24.767 2.45888L24.2047 5.81818L23.7969 5.74993L24.3592 2.39062L24.767 2.45888Z" fill="#151515"/>
<path fill-rule="evenodd" clip-rule="evenodd" d="M24.0709 6.61215L23.0972 12.4336L22.6895 12.3654L23.6631 6.54395L24.0709 6.61215Z" fill="#151515"/>
<path d="M7.81707 16.9994C9.7774 16.9994 11.3666 15.4102 11.3666 13.4499C11.3666 11.4896 9.7774 9.90039 7.81707 9.90039C5.85674 9.90039 4.26758 11.4896 4.26758 13.4499C4.26758 15.4102 5.85674 16.9994 7.81707 16.9994Z" fill="white"/>
<path fill-rule="evenodd" clip-rule="evenodd" d="M7.81676 10.1078C5.97061 10.1078 4.474 11.6044 4.474 13.4506C4.474 15.2967 5.97061 16.7933 7.81676 16.7933C9.66292 16.7933 11.1595 15.2967 11.1595 13.4506C11.1595 11.6044 9.66292 10.1078 7.81676 10.1078ZM4.06055 13.4506C4.06055 11.3761 5.74226 9.69434 7.81676 9.69434C9.89126 9.69434 11.573 11.3761 11.573 13.4506C11.573 15.5251 9.89126 17.2068 7.81676 17.2068C5.74226 17.2068 4.06055 15.5251 4.06055 13.4506Z" fill="#151515"/>
<path fill-rule="evenodd" clip-rule="evenodd" d="M7.81409 11.2544C6.60107 11.2544 5.61865 12.2368 5.61865 13.4498H5.2052C5.2052 12.0085 6.37273 10.8409 7.81409 10.8409C9.25544 10.8409 10.423 12.0085 10.423 13.4498H10.0095C10.0095 12.2368 9.0271 11.2544 7.81409 11.2544Z" fill="#151515"/>
<path d="M34.2136 16.9994C36.1739 16.9994 37.763 15.4102 37.763 13.4499C37.763 11.4896 36.1739 9.90039 34.2136 9.90039C32.2532 9.90039 30.6641 11.4896 30.6641 13.4499C30.6641 15.4102 32.2532 16.9994 34.2136 16.9994Z" fill="white"/>
<path fill-rule="evenodd" clip-rule="evenodd" d="M34.2132 10.1078C32.3671 10.1078 30.8705 11.6044 30.8705 13.4506C30.8705 15.2967 32.3671 16.7933 34.2132 16.7933C36.0594 16.7933 37.556 15.2967 37.556 13.4506C37.556 11.6044 36.0594 10.1078 34.2132 10.1078ZM30.457 13.4506C30.457 11.3761 32.1387 9.69434 34.2132 9.69434C36.2877 9.69434 37.9695 11.3761 37.9695 13.4506C37.9695 15.5251 36.2877 17.2068 34.2132 17.2068C32.1387 17.2068 30.457 15.5251 30.457 13.4506Z" fill="#151515"/>
<path fill-rule="evenodd" clip-rule="evenodd" d="M34.2125 11.2544C32.9995 11.2544 32.0171 12.2368 32.0171 13.4498H31.6036C31.6036 12.0085 32.7712 10.8409 34.2125 10.8409C35.6539 10.8409 36.8214 12.0085 36.8214 13.4498H36.408C36.408 12.2368 35.4255 11.2544 34.2125 11.2544Z" fill="#151515"/>
</svg>
